<svg version="1.1" id="Layer_1" xmlns="http://www.w3.org/2000/svg" xmlns:xlink="http://www.w3.org/1999/xlink" x="0px" y="0px"
	 width="100%" viewBox="0 0 800 200" enable-background="new 0 0 800 200" xml:space="preserve">
<path fill="#E6F7FE" opacity="1.000000" stroke="none"
	d="
M529.000000,0.999991
	C619.625732,1.000000 710.251404,1.000000 800.938599,1.000000
	C800.938599,67.595551 800.938599,134.191177 800.938599,201.000000
	C636.978638,201.000000 472.957153,201.000000 308.407654,200.635620
	C303.394043,191.378342 299.289490,182.266647 294.336792,173.642014
	C286.179504,159.436951 275.991730,146.755386 264.479797,135.033691
	C249.309189,119.586662 231.360565,108.353195 212.155075,98.847435
	C211.332108,98.440102 210.370407,98.313019 208.782120,97.856857
	C209.356125,99.067741 209.492905,99.726616 209.888123,100.135925
	C219.818726,110.419998 229.862976,120.595612 239.711060,130.957764
	C258.863464,151.109879 271.585144,175.088989 281.000000,201.000000
	C276.310455,201.000000 271.620880,201.000000 266.376343,200.645477
	C263.392914,195.385193 261.566803,190.049866 258.429138,185.649857
	C246.444031,168.842896 234.389633,152.060928 221.674484,135.806747
	C211.624557,122.959602 200.491837,110.961601 186.895844,101.631599
	C183.708069,99.444046 183.130371,97.031036 184.478973,93.527504
	C187.405838,85.923836 190.071869,78.219978 192.893890,70.575294
	C193.099670,70.017830 193.702957,69.607101 194.298782,68.925140
	C195.397507,69.601021 196.345108,70.193336 197.301651,70.770874
	C204.988495,75.411995 212.389359,80.639450 220.426392,84.563866
	C235.970886,92.154106 251.980591,98.785690 267.606781,106.215675
	C300.938141,122.064163 336.089233,132.133072 372.188141,138.910721
	C400.330322,144.194473 428.804291,144.159607 457.304382,142.024002
	C482.009735,140.172775 506.013123,134.894531 529.710876,127.905510
	C550.001343,121.921364 570.263062,115.761230 591.768311,115.935898
	C597.350708,115.981239 598.904053,113.573235 596.481323,108.712112
	C585.642456,86.963821 574.887939,65.168205 563.651001,43.625431
	C556.293213,29.519485 547.121277,16.672209 534.292175,6.797272
	C532.250366,5.225662 530.750488,2.950090 529.000000,0.999991
z"/>
<path fill="#E6F7FE" opacity="1.000000" stroke="none"
	d="
M528.531372,0.999991
	C530.750488,2.950090 532.250366,5.225662 534.292175,6.797272
	C547.121277,16.672209 556.293213,29.519485 563.651001,43.625431
	C574.887939,65.168205 585.642456,86.963821 596.481323,108.712112
	C598.904053,113.573235 597.350708,115.981239 591.768311,115.935898
	C570.263062,115.761230 550.001343,121.921364 529.710876,127.905510
	C506.013123,134.894531 482.009735,140.172775 457.304382,142.024002
	C428.804291,144.159607 400.330322,144.194473 372.188141,138.910721
	C336.089233,132.133072 300.938141,122.064163 267.606781,106.215675
	C251.980591,98.785690 235.970886,92.154106 220.426392,84.563866
	C212.389359,80.639450 204.988495,75.411995 197.301651,70.770874
	C196.345108,70.193336 195.397507,69.601021 194.298782,68.925140
	C193.702957,69.607101 193.099670,70.017830 192.893890,70.575294
	C190.071869,78.219978 187.405838,85.923836 184.478973,93.527504
	C183.130371,97.031036 183.708069,99.444046 186.895844,101.631599
	C200.491837,110.961601 211.624557,122.959602 221.674484,135.806747
	C234.389633,152.060928 246.444031,168.842896 258.429138,185.649857
	C261.566803,190.049866 263.392914,195.385193 265.910706,200.645477
	C220.645767,201.000000 175.291550,201.000000 129.464783,200.531372
	C127.981239,177.201828 131.830566,155.181641 141.770142,133.246231
	C138.291229,133.624008 136.161575,133.622726 134.151230,134.111832
	C122.306664,136.993393 110.939362,134.805954 99.915321,130.577072
	C97.023537,129.467773 94.063416,127.125076 92.393280,124.536690
	C88.924095,119.160126 92.759315,112.788559 99.132202,113.272331
	C102.269119,113.510468 105.516953,115.008522 108.306877,116.635551
	C121.916840,124.572685 136.204041,124.964806 149.093002,116.902504
	C169.450378,104.168579 181.631744,85.711571 180.957794,60.637154
	C180.431976,41.073471 175.099899,23.226944 161.335022,8.584708
	C159.082626,6.188752 157.104752,3.534742 155.000000,1.000000
	C163.020905,1.000000 171.041809,1.000000 179.649704,1.327635
	C184.290405,10.220321 188.229080,18.843849 192.521713,27.287428
	C193.166229,28.555212 195.441742,29.577074 197.007843,29.643051
	C198.896393,29.722612 200.814133,28.583994 202.751770,28.104044
	C224.227310,22.784637 245.531357,16.547640 267.239288,12.455091
	C288.954468,8.361177 311.103790,6.787070 333.300659,7.982514
	C357.546661,9.288315 381.804840,10.439297 406.025238,12.124889
	C423.673218,13.353084 440.985199,16.770578 457.877136,22.162928
	C481.723511,29.775335 503.440369,41.514164 523.779602,55.962315
	C524.562256,56.518265 525.664368,56.624493 527.476074,57.224670
	C526.594543,55.448040 526.276733,54.508450 525.723999,53.737293
	C511.200287,33.474678 492.739807,17.811304 470.600677,6.385515
	C467.868378,4.975415 465.524109,2.813509 463.000000,0.999991
	C484.687561,1.000000 506.375122,1.000000 528.531372,0.999991
z"/>
<path fill="#E6F7FE" opacity="1.000000" stroke="none"
	d="
M154.531342,1.000000
	C157.104752,3.534742 159.082626,6.188752 161.335022,8.584708
	C175.099899,23.226944 180.431976,41.073471 180.957794,60.637154
	C181.631744,85.711571 169.450378,104.168579 149.093002,116.902504
	C136.204041,124.964806 121.916840,124.572685 108.306877,116.635551
	C105.516953,115.008522 102.269119,113.510468 99.132202,113.272331
	C92.759315,112.788559 88.924095,119.160126 92.393280,124.536690
	C94.063416,127.125076 97.023537,129.467773 99.915321,130.577072
	C110.939362,134.805954 122.306664,136.993393 134.151230,134.111832
	C136.161575,133.622726 138.291229,133.624008 141.770142,133.246231
	C131.830566,155.181641 127.981239,177.201828 128.996124,200.531372
	C89.979103,201.000000 50.958210,201.000000 11.429169,200.616852
	C9.277538,195.551254 7.715457,190.838120 5.966177,186.195526
	C4.419085,182.089539 2.663522,178.062119 1.000000,174.000000
	C1.000000,140.645767 1.000000,107.291542 1.274732,73.264450
	C2.660109,70.218369 4.088550,67.940109 4.830673,65.456757
	C10.321065,47.084332 18.326103,30.016052 30.637932,15.169961
	C34.637955,10.346573 38.872643,5.717792 43.000000,1.000000
	C80.020897,1.000000 117.041786,1.000000 154.531342,1.000000
z"/>
<path fill="#E6F7FE" opacity="1.000000" stroke="none"
	d="
M462.531342,0.999991
	C465.524109,2.813509 467.868378,4.975415 470.600677,6.385515
	C492.739807,17.811304 511.200287,33.474678 525.723999,53.737293
	C526.276733,54.508450 526.594543,55.448040 527.476074,57.224670
	C525.664368,56.624493 524.562256,56.518265 523.779602,55.962315
	C503.440369,41.514164 481.723511,29.775335 457.877136,22.162928
	C440.985199,16.770578 423.673218,13.353084 406.025238,12.124889
	C381.804840,10.439297 357.546661,9.288315 333.300659,7.982514
	C311.103790,6.787070 288.954468,8.361177 267.239288,12.455091
	C245.531357,16.547640 224.227310,22.784637 202.751770,28.104044
	C200.814133,28.583994 198.896393,29.722612 197.007843,29.643051
	C195.441742,29.577074 193.166229,28.555212 192.521713,27.287428
	C188.229080,18.843849 184.290405,10.220321 180.118347,1.327635
	C191.354233,1.000000 202.708450,1.000000 214.395050,1.307247
	C210.826355,4.863214 206.925293,8.111934 203.024246,11.360653
	C203.234528,11.750253 203.444809,12.139853 203.655106,12.529452
	C209.322220,10.506157 215.049774,8.634436 220.635757,6.407628
	C224.524429,4.857441 228.218826,2.819855 232.000000,1.000000
	C308.687561,1.000000 385.375122,1.000000 462.531342,0.999991
z"/>
<path fill="#E6F7FE" opacity="1.000000" stroke="none"
	d="
M281.468658,201.000000
	C271.585144,175.088989 258.863464,151.109879 239.711060,130.957764
	C229.862976,120.595612 219.818726,110.419998 209.888123,100.135925
	C209.492905,99.726616 209.356125,99.067741 208.782120,97.856857
	C210.370407,98.313019 211.332108,98.440102 212.155075,98.847435
	C231.360565,108.353195 249.309189,119.586662 264.479797,135.033691
	C275.991730,146.755386 286.179504,159.436951 294.336792,173.642014
	C299.289490,182.266647 303.394043,191.378342 307.939819,200.635620
	C299.312439,201.000000 290.624878,201.000000 281.468658,201.000000
z"/>
<path fill="#E6F7FE" opacity="1.000000" stroke="none"
	d="
M42.531342,1.000000
	C38.872643,5.717792 34.637955,10.346573 30.637932,15.169961
	C18.326103,30.016052 10.321065,47.084332 4.830673,65.456757
	C4.088550,67.940109 2.660109,70.218369 1.274732,72.795792
	C1.000000,49.092468 1.000000,25.184940 1.000000,1.000000
	C14.686313,1.000000 28.374498,1.000000 42.531342,1.000000
z"/>
<path fill="#E6F7FE" opacity="1.000000" stroke="none"
	d="
M1.000000,174.468658
	C2.663522,178.062119 4.419085,182.089539 5.966177,186.195526
	C7.715457,190.838120 9.277538,195.551254 10.960512,200.616852
	C7.706604,201.000000 4.413209,201.000000 1.000000,201.000000
	C1.000000,192.312714 1.000000,183.625015 1.000000,174.468658
z"/>
<path fill="#E6F7FE" opacity="1.000000" stroke="none"
	d="
M231.532394,1.000000
	C228.218826,2.819855 224.524429,4.857441 220.635757,6.407628
	C215.049774,8.634436 209.322220,10.506157 203.655106,12.529452
	C203.444809,12.139853 203.234528,11.750253 203.024246,11.360653
	C206.925293,8.111934 210.826355,4.863214 214.863708,1.307247
	C220.354935,1.000000 225.709854,1.000000 231.532394,1.000000
z"/>
</svg>