<svg width="128" height="106" viewBox="0 0 128 106" fill="none" xmlns="http://www.w3.org/2000/svg">
<rect x="27.855" y="11.855" width="87.29" height="87.29" rx="43.645" stroke="#45B369" stroke-width="1.29"/>
<circle cx="71.5" cy="55.4998" r="38.7" fill="#004A3C"/>
<path d="M67.398 71.8402H67.1102C66.4865 71.7965 65.8766 71.6221 65.3249 71.3269C64.7766 71.0284 64.2969 70.6225 63.9233 70.126L51.7003 53.8937C51.0218 52.988 50.7374 51.8609 50.9087 50.7506C51.0766 49.6436 51.69 48.6439 52.6084 47.9764C53.5336 47.3122 54.6849 47.0338 55.8158 47.2015C56.95 47.3659 57.9712 47.963 58.6531 48.862L67.8298 61.0521C67.8332 61.0555 67.8332 61.0555 67.8367 61.0555C67.8401 61.0589 67.8401 61.0589 67.8435 61.0589C67.8469 61.0589 67.8469 61.0589 67.8504 61.0589C67.8538 61.0555 67.8538 61.0555 67.8538 61.0521L88.1468 40.4523C88.9418 39.6472 90.0349 39.181 91.1794 39.1608C92.3239 39.1407 93.4342 39.5667 94.26 40.345C95.0824 41.1232 95.5587 42.1933 95.5793 43.3137C95.5998 44.4374 95.1647 45.5209 94.3697 46.326L70.4992 70.5621C70.0949 70.9646 69.6151 71.2867 69.0806 71.5047C68.5494 71.7261 67.9771 71.8402 67.398 71.8402Z" fill="#45B369"/>
<path d="M11.8785 76.6257C10.7169 76.3433 9.31615 75.8326 8.18893 74.9366C7.29298 73.8203 6.78025 72.4215 6.49877 71.2616C6.48027 71.1824 6.43667 71.1111 6.37324 71.0597C6.30848 71.0095 6.23052 70.9805 6.14858 70.9805H6.13141C6.04947 70.9792 5.97019 71.0069 5.90543 71.0584C5.842 71.1098 5.79707 71.1811 5.78122 71.2616C5.49181 72.4215 4.98701 73.8203 4.09106 74.9446C2.96384 75.8405 1.56309 76.3433 0.401514 76.6336C0.320904 76.6521 0.248222 76.6983 0.198006 76.7629C0.146469 76.8276 0.118719 76.9094 0.12004 76.9912V77.0084C0.12004 77.0915 0.147792 77.172 0.199329 77.2367C0.249545 77.3013 0.320904 77.3475 0.401514 77.3673C1.56309 77.6484 2.96384 78.1604 4.09106 79.0551C4.98701 80.1807 5.49181 81.5794 5.78122 82.7394C5.79972 82.8185 5.84333 82.8898 5.90676 82.9413C5.97151 82.9927 6.04947 83.0191 6.13141 83.0204H6.14858C6.23052 83.0217 6.3098 82.994 6.37455 82.9426C6.43799 82.8911 6.48292 82.8198 6.49877 82.7394C6.78818 81.5794 7.29298 80.1807 8.18893 79.0551C9.31615 78.1604 10.7169 77.6563 11.8785 77.3673C11.9591 77.3488 12.0318 77.3027 12.082 77.238C12.1335 77.172 12.1613 77.0915 12.16 77.0084V76.9912C12.1586 76.9081 12.1309 76.8276 12.0793 76.7616C12.0291 76.6956 11.9578 76.6481 11.8785 76.6257Z" fill="#FFD84A"/>
<path d="M121.159 100.355C120.246 100.134 119.145 99.7323 118.26 99.0283C117.556 98.1512 117.153 97.0522 116.932 96.1408C116.917 96.0786 116.883 96.0226 116.833 95.9822C116.782 95.9428 116.721 95.92 116.657 95.92H116.643C116.579 95.9189 116.517 95.9407 116.466 95.9811C116.416 96.0216 116.38 96.0776 116.368 96.1408C116.141 97.0522 115.744 98.1512 115.04 99.0346C114.154 99.7386 113.054 100.134 112.141 100.362C112.078 100.376 112.021 100.412 111.981 100.463C111.941 100.514 111.919 100.578 111.92 100.643V100.656C111.92 100.721 111.942 100.785 111.982 100.836C112.022 100.886 112.078 100.923 112.141 100.938C113.054 101.159 114.154 101.561 115.04 102.264C115.744 103.149 116.141 104.248 116.368 105.159C116.383 105.221 116.417 105.277 116.467 105.318C116.518 105.358 116.579 105.379 116.643 105.38H116.657C116.721 105.381 116.783 105.359 116.834 105.319C116.884 105.278 116.919 105.222 116.932 105.159C117.159 104.248 117.556 103.149 118.26 102.264C119.145 101.561 120.246 101.165 121.159 100.938C121.222 100.924 121.279 100.887 121.319 100.837C121.359 100.785 121.381 100.721 121.38 100.656V100.643C121.379 100.577 121.357 100.514 121.317 100.462C121.277 100.41 121.221 100.373 121.159 100.355Z" fill="#45B369"/>
<path d="M127.219 16.1291C126.472 15.9475 125.572 15.6192 124.847 15.0432C124.271 14.3256 123.942 13.4264 123.761 12.6807C123.749 12.6298 123.721 12.584 123.68 12.5509C123.638 12.5187 123.588 12.5 123.535 12.5H123.524C123.472 12.4992 123.421 12.517 123.379 12.5501C123.338 12.5832 123.309 12.629 123.299 12.6807C123.113 13.4264 122.789 14.3256 122.213 15.0483C121.488 15.6243 120.588 15.9475 119.841 16.1342C119.789 16.146 119.742 16.1757 119.71 16.2173C119.677 16.2589 119.659 16.3115 119.66 16.3641V16.3751C119.66 16.4285 119.678 16.4803 119.711 16.5218C119.743 16.5634 119.789 16.5931 119.841 16.6058C120.588 16.7865 121.488 17.1157 122.213 17.6908C122.789 18.4144 123.113 19.3136 123.299 20.0593C123.311 20.1102 123.339 20.156 123.38 20.1891C123.422 20.2222 123.472 20.2391 123.524 20.24H123.535C123.588 20.2408 123.639 20.223 123.681 20.1899C123.721 20.1568 123.75 20.111 123.761 20.0593C123.947 19.3136 124.271 18.4144 124.847 17.6908C125.572 17.1157 126.472 16.7916 127.219 16.6058C127.271 16.594 127.317 16.5643 127.35 16.5227C127.383 16.4803 127.401 16.4285 127.4 16.3751V16.3641C127.399 16.3106 127.381 16.2589 127.348 16.2165C127.316 16.174 127.27 16.1435 127.219 16.1291Z" fill="#8FEFAE"/>
<path d="M18.8181 63.8458C17.9061 63.6454 16.8009 63.2831 15.9149 62.6395C15.2165 61.8353 14.8098 60.8294 14.5879 60.0015C14.5729 59.9442 14.5386 59.8944 14.4893 59.8571C14.4401 59.821 14.3784 59.801 14.3141 59.7998H14.3058C14.2415 59.7998 14.1785 59.8197 14.1292 59.8571C14.0785 59.8932 14.0443 59.9442 14.0306 60.0015C13.8101 60.8294 13.4116 61.8353 12.7036 62.6395C11.819 63.2744 10.7125 63.6454 9.8018 63.8458C9.73881 63.8595 9.68403 63.8919 9.64432 63.9367C9.60324 63.9815 9.58133 64.0376 9.57996 64.0948V64.1035C9.57996 64.1621 9.60187 64.2181 9.64158 64.2641C9.68266 64.309 9.73881 64.3413 9.8018 64.3525C10.7125 64.5542 11.819 64.9165 12.7036 65.5601C13.4034 66.3643 13.8101 67.3702 14.0306 68.1981C14.0457 68.2554 14.0799 68.3052 14.1306 68.3413C14.1799 68.3774 14.2415 68.3986 14.3058 68.3998H14.3141C14.3784 68.3998 14.4401 68.3799 14.4907 68.3425C14.54 68.3064 14.5743 68.2554 14.5879 68.1981C14.8098 67.3702 15.2083 66.3643 15.9149 65.5601C16.8009 64.924 17.9061 64.5542 18.8181 64.3525C18.8797 64.3401 18.9359 64.3077 18.9756 64.2629C19.0153 64.2168 19.0386 64.1621 19.04 64.1035V64.0948C19.04 64.0376 19.018 63.9803 18.977 63.9355C18.9372 63.8894 18.8811 63.8583 18.8181 63.8458Z" fill="#FFD84A"/>
<path d="M36.0988 97.8918C35.5184 97.7515 34.8151 97.4979 34.2513 97.0474C33.8069 96.4844 33.5481 95.7803 33.4069 95.2007C33.3973 95.1607 33.3755 95.1258 33.3441 95.0997C33.3128 95.0744 33.2735 95.0604 33.2326 95.0596H33.2274C33.1864 95.0596 33.1463 95.0735 33.1149 95.0997C33.0827 95.1249 33.0609 95.1607 33.0522 95.2007C32.9119 95.7803 32.6583 96.4844 32.2078 97.0474C31.6448 97.4918 30.9407 97.7515 30.3611 97.8918C30.3211 97.9014 30.2862 97.924 30.2609 97.9554C30.2348 97.9868 30.2208 98.026 30.22 98.0661V98.0722C30.22 98.1131 30.2339 98.1524 30.2592 98.1846C30.2853 98.216 30.3211 98.2386 30.3611 98.2465C30.9407 98.3877 31.6448 98.6412 32.2078 99.0918C32.6531 99.6547 32.9119 100.359 33.0522 100.938C33.0618 100.978 33.0836 101.013 33.1158 101.039C33.1472 101.064 33.1864 101.079 33.2274 101.08H33.2326C33.2735 101.08 33.3128 101.066 33.345 101.039C33.3764 101.014 33.3982 100.978 33.4069 100.938C33.5481 100.359 33.8016 99.6547 34.2513 99.0918C34.8151 98.6465 35.5184 98.3877 36.0988 98.2465C36.138 98.2378 36.1737 98.2151 36.199 98.1837C36.2243 98.1515 36.2391 98.1131 36.24 98.0722V98.0661C36.24 98.026 36.226 97.9859 36.1999 97.9545C36.1746 97.9223 36.1389 97.9005 36.0988 97.8918Z" fill="#8FEFAE"/>
<path d="M31.3884 21.9589L17.3243 16.096C17.3228 16.096 17.3228 16.0946 17.3214 16.0946C17.3214 16.0933 17.3199 16.0933 17.3199 16.0919C17.3199 16.0906 17.3199 16.0892 17.3199 16.0892C17.3199 16.0878 17.3199 16.0865 17.3214 16.0865L22.0733 9.92263L22.0747 9.92127C22.0762 9.92127 22.0776 9.91992 22.0776 9.91992C22.0791 9.91992 22.0805 9.91992 22.0805 9.92127C22.082 9.92127 22.0834 9.92128 22.0834 9.92263L33.657 19.0227C33.6585 19.0241 33.6599 19.0254 33.6599 19.0281C33.6599 19.0295 33.6599 19.0308 33.6585 19.0322L31.3971 21.9575C31.3971 21.9575 31.3957 21.9589 31.3928 21.9589C31.3913 21.9603 31.3899 21.9603 31.3884 21.9589Z" fill="#8FEFAE"/>
<path d="M36.048 16.7985L28.5013 4.69316C28.5013 4.69316 28.5013 4.69172 28.5 4.69172C28.5 4.69028 28.5 4.68883 28.5 4.68883C28.5013 4.68739 28.5013 4.68595 28.5013 4.68595C28.5026 4.68451 28.5026 4.68451 28.5039 4.68451L34.5161 0.461405C34.5161 0.461405 34.5174 0.459961 34.5187 0.459961C34.5187 0.459961 34.52 0.459962 34.52 0.461405C34.5213 0.461405 34.5226 0.461406 34.5226 0.462848C34.5239 0.462848 34.5239 0.464289 34.5239 0.465731L38.82 14.6365C38.82 14.6379 38.82 14.6394 38.82 14.6408C38.82 14.6423 38.8187 14.6437 38.8174 14.6437L36.0572 16.8C36.0559 16.8 36.0546 16.8 36.0546 16.8C36.0533 16.8 36.0533 16.8 36.052 16.8C36.052 16.8 36.0506 16.8 36.0493 16.8L36.048 16.7985Z" fill="#8FEFAE"/>
</svg>
