<svg width="10" height="20" viewBox="0 0 3 14" fill="currentColor" xmlns="http://www.w3.org/2000/svg">
<path d="M2.4375 7C2.4375 7.18542 2.38252 7.36668 2.2795 7.52085C2.17649 7.67502 2.03007 7.79518 1.85877 7.86614C1.68746 7.93709 1.49896 7.95566 1.3171 7.91949C1.13525 7.88331 0.9682 7.79402 0.837088 7.66291C0.705976 7.5318 0.616688 7.36475 0.580514 7.1829C0.544341 7.00104 0.562906 6.81254 0.633863 6.64123C0.704821 6.46993 0.824983 6.32351 0.979154 6.2205C1.13332 6.11748 1.31458 6.0625 1.5 6.0625C1.74864 6.0625 1.9871 6.16127 2.16291 6.33709C2.33873 6.5129 2.4375 6.75136 2.4375 7ZM1.5 2.625C1.68542 2.625 1.86668 2.57002 2.02085 2.467C2.17502 2.36399 2.29518 2.21757 2.36614 2.04627C2.43709 1.87496 2.45566 1.68646 2.41949 1.5046C2.38331 1.32275 2.29402 1.1557 2.16291 1.02459C2.0318 0.893476 1.86475 0.804188 1.6829 0.768014C1.50104 0.731841 1.31254 0.750406 1.14123 0.821363C0.969929 0.892321 0.823511 1.01248 0.720498 1.16665C0.617484 1.32082 0.562501 1.50208 0.562501 1.6875C0.562501 1.93614 0.661272 2.1746 0.837088 2.35041C1.0129 2.52623 1.25136 2.625 1.5 2.625ZM1.5 11.375C1.31458 11.375 1.13332 11.43 0.979154 11.533C0.824983 11.636 0.704821 11.7824 0.633863 11.9537C0.562906 12.125 0.544341 12.3135 0.580514 12.4954C0.616688 12.6773 0.705976 12.8443 0.837088 12.9754C0.9682 13.1065 1.13525 13.1958 1.3171 13.232C1.49896 13.2682 1.68746 13.2496 1.85877 13.1786C2.03007 13.1077 2.17649 12.9875 2.2795 12.8333C2.38252 12.6792 2.4375 12.4979 2.4375 12.3125C2.4375 12.0639 2.33873 11.8254 2.16291 11.6496C1.9871 11.4738 1.74864 11.375 1.5 11.375Z" fill="#6B7280"/>
</svg>
