<svg viewBox="0 0 21 20" xmlns="http://www.w3.org/2000/svg">
<path d="M17.773 10.3983L17.773 10.3983L12.148 16.0233C12.0424 16.1289 11.8993 16.1882 11.75 16.1882C11.6007 16.1882 11.4576 16.1289 11.352 16.0233C11.2465 15.9178 11.1872 15.7746 11.1872 15.6253C11.1872 15.4761 11.2465 15.3329 11.352 15.2274L15.9106 10.6695L16.0173 10.5628H15.8664H3.625C3.47582 10.5628 3.33274 10.5036 3.22725 10.3981C3.12176 10.2926 3.0625 10.1495 3.0625 10.0003C3.0625 9.85116 3.12176 9.70809 3.22725 9.6026C3.33274 9.49711 3.47582 9.43785 3.625 9.43785H15.8664H16.0173L15.9106 9.33115L11.352 4.77334C11.2465 4.66779 11.1872 4.52462 11.1872 4.37535C11.1872 4.22607 11.2465 4.08291 11.352 3.97735C11.4576 3.8718 11.6007 3.8125 11.75 3.8125C11.8993 3.8125 12.0424 3.8718 12.148 3.97735L17.773 9.60235L17.773 9.60238C17.8253 9.65462 17.8668 9.71666 17.8951 9.78494C17.9234 9.85323 17.938 9.92643 17.938 10.0003C17.938 10.0743 17.9234 10.1475 17.8951 10.2158C17.8668 10.284 17.8253 10.3461 17.773 10.3983Z" fill="currentColor" stroke="currentColor" stroke-width="0.125"/>
</svg>
