<svg viewBox="0 0 25 24" fill="none" xmlns="http://www.w3.org/2000/svg">
<path d="M20.3198 16.9863L20.3198 16.9864L17.3198 19.9864C17.1907 20.1154 17.0158 20.1878 16.8333 20.1878C16.6509 20.1878 16.4759 20.1154 16.3469 19.9864C16.2179 19.8574 16.1454 19.6824 16.1454 19.4999C16.1454 19.3175 16.2179 19.1425 16.3469 19.0135C16.3469 19.0135 16.3469 19.0135 16.3469 19.0135L18.0672 17.2941L18.174 17.1874H18.023H4.83332C4.65099 17.1874 4.47612 17.115 4.34719 16.9861C4.21826 16.8571 4.14582 16.6823 4.14582 16.4999C4.14582 16.3176 4.21826 16.1427 4.34719 16.0138C4.47612 15.8849 4.65099 15.8124 4.83332 15.8124H18.023H18.174L18.0672 15.7057L16.3469 13.9864C16.3469 13.9864 16.3469 13.9864 16.3469 13.9863C16.2179 13.8573 16.1454 13.6824 16.1454 13.4999C16.1454 13.3175 16.2179 13.1425 16.3469 13.0135C16.4759 12.8845 16.6509 12.812 16.8333 12.812C17.0158 12.812 17.1907 12.8845 17.3198 13.0135L20.3198 16.0135L20.3198 16.0135C20.3837 16.0774 20.4344 16.1532 20.469 16.2367C20.5036 16.3201 20.5214 16.4096 20.5214 16.4999C20.5214 16.5903 20.5036 16.6797 20.469 16.7632C20.4344 16.8467 20.3837 16.9225 20.3198 16.9863ZM6.64364 8.18743H6.49269L6.59945 8.29413L8.31975 10.0135C8.31976 10.0135 8.31976 10.0135 8.31977 10.0135C8.44877 10.1425 8.52124 10.3175 8.52124 10.4999C8.52124 10.6824 8.44876 10.8574 8.31975 10.9864C8.19074 11.1154 8.01577 11.1878 7.83332 11.1878C7.65088 11.1878 7.4759 11.1154 7.34689 10.9864L4.34689 7.98636L4.34687 7.98633C4.28295 7.92249 4.23224 7.84666 4.19764 7.7632C4.16304 7.67974 4.14523 7.59028 4.14523 7.49993C4.14523 7.40958 4.16304 7.32012 4.19764 7.23666C4.23224 7.1532 4.28295 7.07737 4.34687 7.01352L4.34689 7.0135L7.34689 4.0135C7.4759 3.88449 7.65088 3.81201 7.83332 3.81201C8.01577 3.81201 8.19074 3.88449 8.31975 4.0135C8.44876 4.14251 8.52124 4.31748 8.52124 4.49993C8.52124 4.68237 8.44877 4.85734 8.31977 4.98635C8.31976 4.98635 8.31976 4.98636 8.31975 4.98636L6.59945 6.70572L6.49269 6.81243H6.64364H19.8333C20.0157 6.81243 20.1905 6.88486 20.3195 7.01379C20.4484 7.14272 20.5208 7.31759 20.5208 7.49993C20.5208 7.68227 20.4484 7.85713 20.3195 7.98606C20.1905 8.115 20.0157 8.18743 19.8333 8.18743H6.64364Z" fill="currentColor" stroke="CurrentColor" stroke-width="0.125"/>
</svg>
