<svg width="20" height="17" viewBox="0 0 20 17" fill="currentColor" xmlns="http://www.w3.org/2000/svg">
<path d="M18.75 15.1577H17.5V6.40767C17.5 6.07615 17.3683 5.75821 17.1339 5.52379C16.8995 5.28937 16.5815 5.15767 16.25 5.15767H11.25V1.40767C11.2501 1.18132 11.1888 0.959168 11.0726 0.764939C10.9563 0.570709 10.7895 0.41169 10.59 0.304853C10.3904 0.198016 10.1656 0.147371 9.93951 0.158325C9.71342 0.169279 9.49454 0.24142 9.30625 0.367048L3.05625 4.53267C2.8848 4.64706 2.74429 4.80208 2.64724 4.98391C2.55019 5.16574 2.49961 5.36875 2.5 5.57486V15.1577H1.25C1.08424 15.1577 0.925268 15.2235 0.808058 15.3407C0.690848 15.4579 0.625 15.6169 0.625 15.7827C0.625 15.9484 0.690848 16.1074 0.808058 16.2246C0.925268 16.3418 1.08424 16.4077 1.25 16.4077H18.75C18.9158 16.4077 19.0747 16.3418 19.1919 16.2246C19.3092 16.1074 19.375 15.9484 19.375 15.7827C19.375 15.6169 19.3092 15.4579 19.1919 15.3407C19.0747 15.2235 18.9158 15.1577 18.75 15.1577ZM16.25 6.40767V15.1577H11.25V6.40767H16.25ZM3.75 5.57486L10 1.40767V15.1577H3.75V5.57486ZM8.75 7.65767V8.90767C8.75 9.07343 8.68415 9.23241 8.56694 9.34962C8.44973 9.46683 8.29076 9.53267 8.125 9.53267C7.95924 9.53267 7.80027 9.46683 7.68306 9.34962C7.56585 9.23241 7.5 9.07343 7.5 8.90767V7.65767C7.5 7.49191 7.56585 7.33294 7.68306 7.21573C7.80027 7.09852 7.95924 7.03267 8.125 7.03267C8.29076 7.03267 8.44973 7.09852 8.56694 7.21573C8.68415 7.33294 8.75 7.49191 8.75 7.65767ZM6.25 7.65767V8.90767C6.25 9.07343 6.18415 9.23241 6.06694 9.34962C5.94973 9.46683 5.79076 9.53267 5.625 9.53267C5.45924 9.53267 5.30027 9.46683 5.18306 9.34962C5.06585 9.23241 5 9.07343 5 8.90767V7.65767C5 7.49191 5.06585 7.33294 5.18306 7.21573C5.30027 7.09852 5.45924 7.03267 5.625 7.03267C5.79076 7.03267 5.94973 7.09852 6.06694 7.21573C6.18415 7.33294 6.25 7.49191 6.25 7.65767ZM6.25 12.0327V13.2827C6.25 13.4484 6.18415 13.6074 6.06694 13.7246C5.94973 13.8418 5.79076 13.9077 5.625 13.9077C5.45924 13.9077 5.30027 13.8418 5.18306 13.7246C5.06585 13.6074 5 13.4484 5 13.2827V12.0327C5 11.8669 5.06585 11.7079 5.18306 11.5907C5.30027 11.4735 5.45924 11.4077 5.625 11.4077C5.79076 11.4077 5.94973 11.4735 6.06694 11.5907C6.18415 11.7079 6.25 11.8669 6.25 12.0327ZM8.75 12.0327V13.2827C8.75 13.4484 8.68415 13.6074 8.56694 13.7246C8.44973 13.8418 8.29076 13.9077 8.125 13.9077C7.95924 13.9077 7.80027 13.8418 7.68306 13.7246C7.56585 13.6074 7.5 13.4484 7.5 13.2827V12.0327C7.5 11.8669 7.56585 11.7079 7.68306 11.5907C7.80027 11.4735 7.95924 11.4077 8.125 11.4077C8.29076 11.4077 8.44973 11.4735 8.56694 11.5907C8.68415 11.7079 8.75 11.8669 8.75 12.0327Z" fill="currentColor"/>
</svg>
