<svg width="36" height="30" viewBox="0 0 36 30" fill="none" xmlns="http://www.w3.org/2000/svg">
<path fill-rule="evenodd" clip-rule="evenodd" d="M18.4552 0.390535C15.6125 0.295868 12.7405 1.07142 10.261 2.72653C7.47607 4.58742 5.52985 7.33542 4.6334 10.4074C4.38585 10.3772 4.0894 10.3905 3.7374 10.4901C2.42318 10.863 1.43474 11.9399 0.990292 12.8883C0.413847 14.1243 0.170736 15.759 0.427181 17.4465C0.681847 19.1288 1.39251 20.5154 2.2814 21.3763C3.17296 22.2376 4.17963 22.5176 5.17963 22.3074C6.66851 21.9896 7.40674 21.7519 7.19829 20.3648L6.18896 13.6408C6.39251 10.0016 8.27651 6.57587 11.4276 4.4692C15.6454 1.65187 21.1752 1.83231 25.1983 4.92076C27.997 7.06653 29.6218 10.2816 29.8094 13.6568L29.1036 18.3603C27.5294 22.6683 23.6267 25.6523 19.1107 26.0759H16.1036C15.3276 26.0759 14.7027 26.7008 14.7027 27.4759V28.2145C14.7027 28.9901 15.3276 29.615 16.1036 29.615H19.8952C20.6707 29.615 21.293 28.9901 21.293 28.2145V27.8283C24.6983 26.9972 27.6707 24.9043 29.6063 21.9856L30.821 22.3079C31.8094 22.5643 32.8281 22.2376 33.7192 21.3768C34.6081 20.5154 35.3183 19.1292 35.5734 17.447C35.8307 15.7594 35.5805 14.1274 35.0107 12.8888C34.4387 11.6501 33.5867 10.8634 32.6032 10.5812C32.1912 10.4625 31.7441 10.419 31.3605 10.4074C30.5498 7.62964 28.881 5.10342 26.4756 3.25898C24.1107 1.44431 21.2978 0.483868 18.4552 0.390535Z" fill="#20B66D"/>
<path fill-rule="evenodd" clip-rule="evenodd" d="M22.893 12.487C23.8952 12.487 24.7076 13.2994 24.7099 14.3043C24.7076 15.3065 23.8952 16.1212 22.893 16.1212C21.8881 16.1212 21.0734 15.3065 21.0734 14.3043C21.0734 13.2999 21.8885 12.487 22.893 12.487ZM17.9996 12.487C19.0041 12.487 19.8165 13.2994 19.8165 14.3043C19.8165 15.3065 19.0041 16.1212 17.9996 16.1212C16.9943 16.1212 16.1819 15.3065 16.1819 14.3043C16.1819 13.2999 16.9943 12.487 17.9996 12.487ZM13.1081 12.487C14.1103 12.487 14.925 13.2994 14.925 14.3043C14.925 15.3065 14.1103 16.1212 13.1081 16.1212C12.1036 16.1212 11.2907 15.3065 11.2907 14.3043C11.2907 13.2999 12.1036 12.487 13.1081 12.487ZM17.9996 4.68164C12.6707 4.68164 8.37653 8.83453 8.37653 14.3043C8.37653 16.9314 9.36986 19.2532 10.9881 20.9568L10.4139 23.531C10.2245 24.3781 10.8121 24.9479 11.5734 24.5239L14.0872 23.1216C15.2819 23.6403 16.6032 23.927 17.9996 23.927C23.3303 23.927 27.6219 19.7768 27.6219 14.3043C27.6219 8.83453 23.3303 4.68164 17.9996 4.68164Z" fill="white"/>
</svg>
