<svg  viewBox="0 0 24 25" fill="none" xmlns="http://www.w3.org/2000/svg">
<path d="M9.52782 18.2612L9.5278 18.2612C9.47404 18.3173 9.41035 18.3616 9.34042 18.3918C9.2705 18.422 9.19565 18.4375 9.12013 18.4375C9.0446 18.4375 8.96975 18.422 8.89983 18.3918C8.82991 18.3616 8.76621 18.3173 8.71246 18.2612L8.71243 18.2612L4.23263 13.5949C4.12397 13.4817 4.0625 13.3277 4.0625 13.1665C4.0625 13.0054 4.12397 12.8514 4.23263 12.7382C4.34121 12.6251 4.48792 12.5621 4.64033 12.5621C4.79273 12.5621 4.93944 12.6251 5.04802 12.7382C5.04802 12.7382 5.04802 12.7382 5.04802 12.7382L9.07504 16.9337L9.12012 16.9807L9.16522 16.9337L18.952 6.73864C19.0606 6.62554 19.2073 6.5625 19.3597 6.5625C19.5121 6.5625 19.6588 6.62554 19.7674 6.73864C19.876 6.85183 19.9375 7.00586 19.9375 7.16699C19.9375 7.32811 19.876 7.48215 19.7674 7.59534L9.52782 18.2612Z" fill="currentColor" stroke="currentColor" stroke-width="0.125"/>
</svg>
