<svg width="20" height="20" viewBox="0 0 20 20" fill="none" xmlns="http://www.w3.org/2000/svg">
<path d="M10 18.3125H10.0001C12.2039 18.31 14.3167 17.4334 15.8751 15.8751C17.4334 14.3167 18.31 12.2039 18.3125 10.0001V10C18.3125 8.35594 17.825 6.74881 16.9116 5.38182C15.9982 4.01484 14.7 2.9494 13.1811 2.32025C11.6622 1.6911 9.99078 1.52648 8.37832 1.84722C6.76585 2.16796 5.2847 2.95965 4.12218 4.12217C2.95966 5.2847 2.16797 6.76584 1.84723 8.37831C1.52649 9.99078 1.6911 11.6621 2.32026 13.1811C2.94941 14.7 4.01484 15.9982 5.38183 16.9116C6.74881 17.825 8.35595 18.3125 10 18.3125ZM10.6875 9.25V9.3125H10.75H15.25C15.4323 9.3125 15.6072 9.38493 15.7361 9.51386C15.8651 9.6428 15.9375 9.81766 15.9375 10C15.9375 10.1823 15.8651 10.3572 15.7361 10.4861C15.6072 10.6151 15.4323 10.6875 15.25 10.6875H10C9.81767 10.6875 9.6428 10.6151 9.51387 10.4861C9.38494 10.3572 9.3125 10.1823 9.3125 10V4.75C9.3125 4.56766 9.38494 4.3928 9.51387 4.26386C9.6428 4.13493 9.81767 4.0625 10 4.0625C10.1823 4.0625 10.3572 4.13493 10.4861 4.26386C10.6151 4.3928 10.6875 4.56766 10.6875 4.75V9.25ZM4.61792 1.94514C6.21101 0.880668 8.08398 0.312507 9.99997 0.3125C12.5684 0.315221 15.0309 1.33674 16.8471 3.15292C18.6633 4.9691 19.6848 7.4316 19.6875 10.0001C19.6875 11.916 19.1193 13.789 18.0549 15.3821C16.9904 16.9752 15.4774 18.2169 13.7072 18.9501C11.9371 19.6833 9.98926 19.8752 8.11007 19.5014C6.23088 19.1276 4.50473 18.2049 3.14991 16.8501C1.79509 15.4953 0.872441 13.7691 0.498647 11.8899C0.124853 10.0107 0.316697 8.06291 1.04992 6.29275C1.78315 4.52259 3.02482 3.00961 4.61792 1.94514Z" fill="currentColor" stroke="currentColor" stroke-width="0.125"/>
</svg>
