<svg width="25" height="24" viewBox="0 0 25 24" fill="none" xmlns="http://www.w3.org/2000/svg">
<path d="M8.5 2.5H16.5C18.1547 2.5 19.2543 2.97026 19.9461 3.71523C20.6441 4.4669 21 5.57665 21 7V17C21 18.4234 20.6441 19.5331 19.9461 20.2848C19.2543 21.0297 18.1547 21.5 16.5 21.5H8.5C6.8453 21.5 5.74565 21.0297 5.0539 20.2848C4.35591 19.5331 4 18.4234 4 17V7C4 5.57665 4.35591 4.4669 5.0539 3.71523C5.74565 2.97026 6.8453 2.5 8.5 2.5ZM12.5 11.75H8.5C7.81386 11.75 7.25 12.3139 7.25 13C7.25 13.6861 7.81386 14.25 8.5 14.25H12.5C13.1861 14.25 13.75 13.6861 13.75 13C13.75 12.3139 13.1861 11.75 12.5 11.75ZM8.5 18.25H16.5C17.1861 18.25 17.75 17.6861 17.75 17C17.75 16.3139 17.1861 15.75 16.5 15.75H8.5C7.81386 15.75 7.25 16.3139 7.25 17C7.25 17.6861 7.81386 18.25 8.5 18.25ZM17 9.75H19C19.6861 9.75 20.25 9.18614 20.25 8.5C20.25 7.81386 19.6861 7.25 19 7.25H17C16.5861 7.25 16.25 6.91386 16.25 6.5V4.5C16.25 3.81386 15.6861 3.25 15 3.25C14.3139 3.25 13.75 3.81386 13.75 4.5V6.5C13.75 8.29614 15.2039 9.75 17 9.75Z" fill="currentColor" stroke="currentColor"/>
</svg>
