<svg width="16" height="14" viewBox="0 0 16 14" fill="none" xmlns="http://www.w3.org/2000/svg">
<path d="M7.99984 5V7.66667M7.99984 10.3333H8.0065M6.82587 1.63765L1.2112 11.011C1.09552 11.2114 1.03432 11.4387 1.0337 11.6702C1.03307 11.9016 1.09304 12.1292 1.20764 12.3303C1.32224 12.5314 1.48748 12.699 1.68693 12.8164C1.88638 12.9338 2.1131 12.997 2.34453 12.9996H13.5745C13.806 12.997 14.0327 12.9338 14.2321 12.8164C14.4316 12.699 14.5968 12.5314 14.7114 12.3303C14.826 12.1292 14.886 11.9016 14.8854 11.6702C14.8847 11.4387 14.8235 11.2114 14.7079 11.011L9.09253 1.63765C8.97429 1.44297 8.8079 1.28204 8.6094 1.17035C8.41089 1.05867 8.18697 1 7.9592 1C7.73143 1 7.5075 1.05867 7.309 1.17035C7.11049 1.28204 6.9441 1.44297 6.82587 1.63765Z" stroke="#F83E3E" stroke-width="1.33" stroke-linecap="round" stroke-linejoin="round"/>
</svg>
