<svg viewBox="0 0 14 14" fill="none" xmlns="http://www.w3.org/2000/svg">
<path d="M10.3333 13C9.62609 13 8.94781 12.719 8.44772 12.219C7.94762 11.7189 7.66667 11.0406 7.66667 10.3333V2.33333C7.66667 1.97971 7.80714 1.64057 8.05719 1.39052C8.30724 1.14048 8.64638 1 9 1H11.6667C12.0203 1 12.3594 1.14048 12.6095 1.39052C12.8595 1.64057 13 1.97971 13 2.33333V10.3333C13 11.0406 12.719 11.7189 12.219 12.219C11.7189 12.719 11.0406 13 10.3333 13ZM10.3333 13H2.33333C1.97971 13 1.64057 12.8595 1.39052 12.6095C1.14048 12.3594 1 12.0203 1 11.6667V9C1 8.64638 1.14048 8.30724 1.39052 8.05719C1.64057 7.80714 1.97971 7.66667 2.33333 7.66667H3.86667M7.66626 3.9008L6.33292 2.56747C6.08289 2.3175 5.74381 2.17708 5.39026 2.17708C5.03671 2.17708 4.69763 2.3175 4.44759 2.56747L2.56226 4.4528C2.3123 4.70284 2.17188 5.04191 2.17188 5.39547C2.17188 5.74902 2.3123 6.08809 2.56226 6.33813L8.56226 12.3381M10.3333 10.3333V10.34" stroke="currentColor" stroke-width="1.33" stroke-linecap="round" stroke-linejoin="round"/>
</svg>
