<svg viewBox="0 0 14 14" fill="none" stroke="#666666" xmlns="http://www.w3.org/2000/svg">
<path d="M6.05703 6.05729C5.80702 6.30739 5.6666 6.64656 5.66667 7.00019C5.66673 7.35383 5.80727 7.69295 6.05737 7.94296C6.30747 8.19297 6.64664 8.33339 7.00027 8.33333C7.3539 8.33326 7.69302 8.19272 7.94303 7.94263M10.1207 10.1154C9.18549 10.7005 8.1031 11.0073 7 11C4.6 11 2.6 9.66669 1 7.00002C1.848 5.58669 2.808 4.54802 3.88 3.88402M5.78667 3.12002C6.18603 3.03917 6.59254 2.99897 7 3.00002C9.4 3.00002 11.4 4.33335 13 7.00002C12.556 7.74002 12.0807 8.37802 11.5747 8.91335M1 1L13 13" stroke-width="1.1" stroke-linecap="round" stroke-linejoin="round"/>
</svg>
