<svg viewBox="0 0 22 22" fill="none" xmlns="http://www.w3.org/2000/svg">
<path d="M10.4514 14.8363V14.8828V16.1944C10.4514 16.3399 10.5092 16.4795 10.6121 16.5824C10.715 16.6853 10.8545 16.7431 11 16.7431C11.1455 16.7431 11.285 16.6853 11.3879 16.5824C11.4908 16.4795 11.5486 16.3399 11.5486 16.1944V14.8828V14.8363L11.5932 14.823C12.071 14.6803 12.4815 14.3705 12.7497 13.9502C13.0179 13.5298 13.1259 13.027 13.0539 12.5336C12.9819 12.0401 12.7348 11.5891 12.3577 11.2629C11.9805 10.9367 11.4986 10.7571 11 10.7569L10.4514 14.8363ZM10.4514 14.8363L10.4068 14.823M10.4514 14.8363L10.4068 14.823M10.4068 14.823C9.92897 14.6803 9.51846 14.3705 9.25026 13.9502C8.98207 13.5298 8.8741 13.027 8.94609 12.5336C9.01808 12.0401 9.26522 11.5891 9.64235 11.2629C10.0195 10.9367 10.5014 10.7571 11 10.7569L10.4068 14.823ZM14.6042 8.25V8.3125H14.6667H17.1111C17.4187 8.3125 17.7137 8.43469 17.9312 8.65217C18.1487 8.86967 18.2708 9.16464 18.2708 9.47222V18.0278C18.2708 18.3354 18.1487 18.6303 17.9312 18.8478C17.7137 19.0653 17.4187 19.1875 17.1111 19.1875H4.88889C4.58131 19.1875 4.28633 19.0653 4.06884 18.8478C3.85135 18.6303 3.72917 18.3354 3.72917 18.0278V9.47222C3.72917 9.16464 3.85135 8.86967 4.06884 8.65217C4.28633 8.43469 4.58131 8.3125 4.88889 8.3125H7.33333H7.39583V8.25V6.41667C7.39583 5.46078 7.77556 4.54405 8.45147 3.86814C9.12738 3.19222 10.0441 2.8125 11 2.8125C11.9559 2.8125 12.8726 3.19222 13.5485 3.86814C14.2244 4.54405 14.6042 5.46078 14.6042 6.41667V8.25ZM13.4444 8.3125H13.5069V8.25V6.41667C13.5069 5.75178 13.2428 5.11413 12.7727 4.64399C12.3025 4.17385 11.6649 3.90972 11 3.90972C10.3351 3.90972 9.69747 4.17385 9.22732 4.64399C8.75718 5.11413 8.49306 5.75178 8.49306 6.41667V8.25V8.3125H8.55556H13.4444ZM17.1111 18.0903H17.1736V18.0278V9.47222V9.40972H17.1111H4.88889H4.82639V9.47222V18.0278V18.0903H4.88889H17.1111ZM10.456 13.6475C10.617 13.7551 10.8063 13.8125 11 13.8125C11.2597 13.8125 11.5087 13.7093 11.6924 13.5257C11.876 13.3421 11.9792 13.093 11.9792 12.8333C11.9792 12.6397 11.9217 12.4504 11.8141 12.2893C11.7066 12.1283 11.5536 12.0028 11.3747 11.9287C11.1958 11.8546 10.9989 11.8352 10.809 11.873C10.619 11.9108 10.4446 12.004 10.3076 12.141C10.1707 12.2779 10.0774 12.4524 10.0396 12.6423C10.0019 12.8322 10.0213 13.0291 10.0954 13.208C10.1695 13.387 10.295 13.5399 10.456 13.6475Z" fill="#6B7280" stroke="#6B7280" stroke-width="0.125"/>
</svg>
