<?xml version="1.0" encoding="UTF-8"?>
<svg id="Layer_2" data-name="Layer 2" xmlns="http://www.w3.org/2000/svg" xmlns:xlink="http://www.w3.org/1999/xlink" viewBox="0 0 539.94 104.18">
  <defs>
    <style>
      .cls-1 {
        fill: currentColor;
      }

      .cls-1, .cls-2, .cls-3, .cls-4, .cls-5, .cls-6, .cls-7 {
        stroke-width: 0px;
      }

      .cls-2 {
        fill: url(#linear-gradient);
      }

      .cls-2, .cls-3, .cls-4, .cls-5, .cls-6, .cls-7 {
        fill-rule: evenodd;
      }

      .cls-3 {
        fill: url(#linear-gradient-3);
      }

      .cls-4 {
        fill: url(#linear-gradient-2);
      }

      .cls-5 {
        fill: url(#linear-gradient-4);
      }

      .cls-6 {
        fill: url(#linear-gradient-5);
      }

      .cls-7 {
        fill: url(#linear-gradient-6);
      }
    </style>
    <linearGradient id="linear-gradient" x1="104.86" y1="75.39" x2="59.27" y2="31.79" gradientUnits="userSpaceOnUse">
      <stop offset="0" stop-color="#006941"/>
      <stop offset=".4" stop-color="#007b48"/>
      <stop offset="1" stop-color="#85c441"/>
    </linearGradient>
    <linearGradient id="linear-gradient-2" x1="35.98" y1="73.94" x2="81.57" y2="76.42" xlink:href="#linear-gradient"/>
    <linearGradient id="linear-gradient-3" x1="13.77" y1="116.91" x2="72.25" y2="17.02" xlink:href="#linear-gradient"/>
    <linearGradient id="linear-gradient-4" x1="125.65" y1="10.7" x2="76.89" y2="9.08" xlink:href="#linear-gradient"/>
    <linearGradient id="linear-gradient-5" x1="144.95" y1="-10.89" x2="89.93" y2="82.96" xlink:href="#linear-gradient"/>
    <linearGradient id="linear-gradient-6" x1="82.3" y1="85.56" x2="162.88" y2="85.56" xlink:href="#linear-gradient"/>
  </defs>
  <g id="Layer_1-2" data-name="Layer 1">
    <g>
      <g>
        <polygon class="cls-2" points="71.54 19.95 95.06 60.68 89.19 70.64 84.9 77.92 79.36 74.57 73.96 65.23 59.68 40.49 71.54 19.95"/>
        <path class="cls-4" d="M74.16,64.91c5.36,1.15,10.47,2.99,15.23,5.41l-4.29,7.28-6.22,10.58c-5.5-2.59-11.63-4.03-18.11-4.03h-19.8l11.92-20.66h7.87c4.59,0,9.07.49,13.39,1.42Z"/>
        <path class="cls-3" d="M81.94,38.14c-2.18-2.22-5.1-3.68-8.32-4.03-5.28-.57-10.38,1.95-13.14,6.42l-.43.75-36.32,62.9H0L48.19,20.73,60.05.18c7.3,12.65,14.6,25.3,21.89,37.96Z"/>
        <polygon class="cls-5" points="65.94 0 77.76 20.58 129.49 20.42 154.4 .2 65.94 0"/>
        <path class="cls-6" d="M159.09.01l-11.47,20.4-35.86,63.73-11.23,19.96h-.41l-11.88-20.07,9.01-16.02,26.64-47.34.13-.23.29-.52c2.44-4.65,2.01-10.32-1.17-14.57-1.94-2.6-4.69-4.37-7.71-5.11,3.23-.04,6.47-.08,9.7-.11,3.35-.05,6.71-.09,10.06-.12h23.9Z"/>
        <path class="cls-7" d="M169.63,104.18h-92.88c7.04-12.42,14.07-24.83,21.11-37.24-.1.38-.19.76-.25,1.15-.48,2.67-.16,5.48,1,8.07,2.19,4.83,6.95,7.95,12.2,8.07h.86s.45-.01.45-.01l45.17-.46,12.34,20.42Z"/>
      </g>
      <g>
        <path class="cls-1" d="M200.18,96.47L235.19,13.64h.18l34.93,82.83h-14.84l-6.75-16.53h-27.37l-6.84,16.53h-14.31ZM226.13,68.21h17.69l-4.18-10.13c-.89-2.13-1.72-4.21-2.49-6.22-.77-2.01-1.51-4.38-2.22-7.11-.65,2.67-1.35,5.02-2.09,7.07-.74,2.04-1.59,4.13-2.53,6.27l-4.18,10.13Z"/>
        <path class="cls-1" d="M283.18,96.47v-.18l33.24-66.74h-29.33v-13.06h50.75v.18l-33.24,66.74h31.46v13.06h-52.88Z"/>
        <path class="cls-1" d="M360.5,96.47V16.48h14.93v79.99h-14.93Z"/>
        <path class="cls-1" d="M423.78,98.07c-3.2,0-6.3-.42-9.29-1.24-2.99-.83-5.7-1.96-8.13-3.38-2.43-1.42-4.5-2.99-6.22-4.71l4-16.44c1.36,2.37,3.09,4.52,5.2,6.44,2.1,1.93,4.44,3.45,7.02,4.58,2.58,1.13,5.23,1.69,7.95,1.69,2.31,0,4.32-.46,6.04-1.38,1.72-.92,3.05-2.16,4-3.73.95-1.57,1.42-3.3,1.42-5.2,0-2.25-.53-4.12-1.6-5.6-1.07-1.48-2.31-2.7-3.73-3.64-1.42-.95-2.64-1.66-3.64-2.13l-9.51-4.8c-2.43-1.18-4.87-2.67-7.33-4.44-2.46-1.78-4.49-4.04-6.09-6.8-1.6-2.75-2.4-6.18-2.4-10.26,0-3.26.56-6.25,1.69-8.98,1.12-2.72,2.77-5.07,4.93-7.02,2.16-1.96,4.72-3.47,7.69-4.53,2.96-1.07,6.28-1.6,9.95-1.6,4.62,0,8.72.76,12.31,2.27,3.58,1.51,6.47,3.1,8.67,4.75l-3.82,16.09c-1.42-1.96-3.1-3.69-5.02-5.2-1.93-1.51-3.99-2.72-6.18-3.64-2.19-.92-4.41-1.38-6.67-1.38-2.01,0-3.75.39-5.2,1.16-1.45.77-2.56,1.79-3.33,3.07-.77,1.27-1.16,2.71-1.16,4.31s.37,2.99,1.11,4.18c.74,1.19,1.73,2.21,2.98,3.07,1.24.86,2.58,1.64,4,2.36l9.6,4.8c1.48.71,3.16,1.66,5.02,2.84,1.87,1.19,3.69,2.68,5.47,4.49,1.78,1.81,3.24,4,4.4,6.58,1.16,2.58,1.73,5.64,1.73,9.2,0,4.56-1.07,8.68-3.2,12.35-2.13,3.67-5.12,6.58-8.98,8.71-3.85,2.13-8.41,3.2-13.69,3.2Z"/>
        <path class="cls-1" d="M463.68,96.47l28.17-46.04-21.15-33.95h16.62l8,12.44c1.07,1.66,2.13,3.45,3.2,5.38,1.07,1.93,2.22,4.16,3.47,6.71,1.18-2.61,2.31-4.86,3.38-6.75,1.07-1.9,2.16-3.7,3.29-5.42l7.91-12.35h16l-21.06,33.5,28.44,46.48h-16.97l-14.93-24.62c-1.01-1.72-2.03-3.5-3.07-5.33-1.04-1.84-2.18-3.88-3.42-6.13-1.19,2.25-2.28,4.3-3.29,6.13-1.01,1.84-2.04,3.62-3.11,5.33l-15.02,24.62h-16.44Z"/>
      </g>
    </g>
  </g>
</svg>