<svg viewBox="0 0 20 16" fill="none" xmlns="http://www.w3.org/2000/svg">
<path d="M12.75 4.5625V2.84375C12.75 2.38791 12.5689 1.95074 12.2466 1.62841C11.9243 1.30608 11.4871 1.125 11.0312 1.125H2.78125C2.32541 1.125 1.88824 1.30608 1.56591 1.62841C1.24358 1.95074 1.0625 2.38791 1.0625 2.84375V13.1562C1.0625 13.6121 1.24358 14.0493 1.56591 14.3716C1.88824 14.6939 2.32541 14.875 2.78125 14.875H11.0312C11.4871 14.875 11.9243 14.6939 12.2466 14.3716C12.5689 14.0493 12.75 13.6121 12.75 13.1562V11.4375M15.5 4.5625L18.9375 8L15.5 11.4375M7.20703 8H18.9375" stroke="currentColor" stroke-width="1.5" stroke-linecap="round" stroke-linejoin="round"/>
</svg>
