<svg width="25" height="24" viewBox="0 0 25 24" fill="none" xmlns="http://www.w3.org/2000/svg">
<path d="M3.73158 1.53367H9.33219C10.2684 1.53367 11.0302 2.29536 11.0301 3.23158V8.83219C11.0301 9.76841 10.2684 10.5301 9.33219 10.5301H3.73158C2.79536 10.5301 2.03367 9.76841 2.03367 8.83219V3.23158C2.03367 2.29536 2.79536 1.53367 3.73158 1.53367ZM9.33219 9.18902C9.52897 9.18902 9.68902 9.02897 9.68902 8.83219V3.23158C9.68902 3.03481 9.52897 2.87475 9.33219 2.87475H3.73158C3.53481 2.87475 3.37475 3.03481 3.37475 3.23158V8.83219C3.37475 9.02897 3.53481 9.18902 3.73158 9.18902H9.33219Z" fill="currentColor" stroke="currentColor" stroke-width="0.0673401"/>
<path d="M14.6678 1.53367H20.2684C21.2046 1.53367 21.9663 2.29536 21.9663 3.23158V8.83219C21.9663 9.76841 21.2046 10.5301 20.2684 10.5301H14.6678C13.7316 10.5301 12.9699 9.76841 12.9699 8.83219V3.23158C12.9699 2.29536 13.7316 1.53367 14.6678 1.53367ZM20.2684 9.18902C20.4652 9.18902 20.6252 9.02897 20.6252 8.83219V3.23158C20.6252 3.03481 20.4652 2.87475 20.2684 2.87475H14.6678C14.471 2.87475 14.311 3.03481 14.311 3.23158V8.83219C14.311 9.02897 14.471 9.18902 14.6678 9.18902H20.2684Z" fill="currentColor" stroke="currentColor" stroke-width="0.0673401"/>
<path d="M9.33219 12.4365H3.73158C2.77677 12.4365 2 13.2134 2 14.1682V19.7688C2 20.7236 2.77677 21.5004 3.73158 21.5004H9.33219C10.287 21.5004 11.0638 20.7236 11.0638 19.7688V14.1682C11.0638 13.2134 10.287 12.4365 9.33219 12.4365ZM9.65535 19.7688C9.65535 19.947 9.51037 20.0919 9.33219 20.0919H3.73158C3.5534 20.0919 3.40842 19.947 3.40842 19.7688V14.1682C3.40842 13.99 3.5534 13.845 3.73158 13.845H9.33219C9.51037 13.845 9.65535 13.99 9.65535 14.1682V19.7688Z" fill="currentColor"/>
<path d="M20.2684 12.4365H14.6678C13.713 12.4365 12.9362 13.2133 12.9362 14.1681V19.7687C12.9362 20.7235 13.713 21.5003 14.6678 21.5003H20.2684C21.2232 21.5004 22 20.7236 22 19.7688V14.1682C22 13.2134 21.2232 12.4365 20.2684 12.4365ZM20.5916 19.7688C20.5916 19.947 20.4466 20.0919 20.2684 20.0919H14.6678C14.4896 20.0919 14.3446 19.947 14.3446 19.7688V14.1682C14.3446 13.99 14.4896 13.845 14.6678 13.845H20.2684C20.4466 13.845 20.5916 13.99 20.5916 14.1682V19.7688Z" fill="currentColor"/>
</svg>
