<svg viewBox="0 0 18 18" fill="currentColor" xmlns="http://www.w3.org/2000/svg">
<path d="M9 0.782715C7.39303 0.782715 5.82214 1.25924 4.486 2.15202C3.14985 3.04481 2.10844
4.31376 1.49348 5.79841C0.87852 7.28306 0.717618 8.91673 1.03112 10.4928C1.34463 12.0689
2.11846 13.5167 3.25476 14.653C4.39106 15.7893 5.8388 16.5631 7.4149 16.8766C8.99099 17.1901 10.6247
17.0292 12.1093 16.4142C13.594 15.7993 14.8629 14.7579 15.7557 13.4217C16.6485 12.0856 17.125 10.5147
17.125 8.90771C17.1227 6.75353 16.266 4.68822 14.7427 3.16498C13.2195 1.64174 11.1542 0.78499 9 0.782715ZM9
15.7827C7.64026 15.7827 6.31105 15.3795 5.18046 14.6241C4.04987 13.8686 3.16868 12.7949 2.64833 11.5387C2.12798
10.2824 1.99183 8.90009 2.2571 7.56647C2.52238 6.23285 3.17716 5.00784 4.13864 4.04636C5.10013 3.08487 6.32514 2.43009
7.65876 2.16482C8.99238 1.89954 10.3747 2.03569 11.631 2.55604C12.8872 3.0764 13.9609 3.95758 14.7164 5.08817C15.4718
6.21876 15.875 7.54797 15.875 8.90771C15.8729 10.7304 15.1479 12.4779 13.8591 13.7668C12.5702 15.0557 10.8227 15.7806
9 15.7827ZM12.125 10.4702C12.125 11.0504 11.8945 11.6068 11.4843 12.017C11.0741 12.4272 10.5177 12.6577 9.9375
12.6577H9.625V13.2827C9.625 13.4485 9.55916 13.6074 9.44195 13.7247C9.32474 13.8419 9.16576 13.9077 9 13.9077C8.83424
13.9077 8.67527 13.8419 8.55806 13.7247C8.44085 13.6074 8.375 13.4485 8.375 13.2827V12.6577H7.125C6.95924 12.6577 6.80027
12.5919 6.68306 12.4747C6.56585 12.3574 6.5 12.1985 6.5 12.0327C6.5 11.867 6.56585 11.708 6.68306 11.5908C6.80027 11.4736
6.95924 11.4077 7.125 11.4077H9.9375C10.1861 11.4077 10.4246 11.3089 10.6004 11.1331C10.7762 10.9573 10.875 10.7189 10.875
10.4702C10.875 10.2216 10.7762 9.98312 10.6004 9.8073C10.4246 9.63149 10.1861 9.53271 9.9375 9.53271H8.0625C7.48234 9.53271
6.92594 9.30225 6.51571 8.89201C6.10547 8.48177 5.875 7.92538 5.875 7.34521C5.875 6.76505 6.10547 6.20865 6.51571 5.79842C6.92594
5.38818 7.48234 5.15771 8.0625 5.15771H8.375V4.53271C8.375 4.36695 8.44085 4.20798 8.55806 4.09077C8.67527 3.97356 8.83424 3.90771
9 3.90771C9.16576 3.90771 9.32474 3.97356 9.44195 4.09077C9.55916 4.20798 9.625 4.36695 9.625 4.53271V5.15771H10.875C11.0408 5.15771
11.1997 5.22356 11.3169 5.34077C11.4342 5.45798 11.5 5.61695 11.5 5.78271C11.5 5.94848 11.4342 6.10745 11.3169 6.22466C11.1997 6.34187
11.0408 6.40771 10.875 6.40771H8.0625C7.81386 6.40771 7.57541 6.50649 7.39959 6.6823C7.22378 6.85812 7.125 7.09657 7.125 7.34521C7.125
7.59386 7.22378 7.83231 7.39959 8.00813C7.57541 8.18394 7.81386 8.28271 8.0625 8.28271H9.9375C10.5177 8.28271 11.0741 8.51318 11.4843
8.92342C11.8945 9.33365 12.125 9.89005 12.125 10.4702Z" fill="currentColor"/>
</svg>
