<svg width="20" height="20" viewBox="0 0 20 20" fill="none" xmlns="http://www.w3.org/2000/svg">
<path d="M2.91043 11.9192L2.91061 11.919L12.5442 2.28541L12.5 2.24122L12.5442 2.28541C12.6545 2.17511 12.7854 2.08761 12.9295 2.02792C13.0736 1.96822 13.228 1.9375 13.384 1.9375C13.54 1.9375 13.6944 1.96822 13.8385 2.02792C13.9826 2.08761 14.1135 2.17511 14.2238 2.28541L14.2238 2.28542L17.7152 5.77604C17.8255 5.88632 17.913 6.01724 17.9727 6.16133C18.0324 6.30542 18.0631 6.45986 18.0631 6.61583C18.0631 6.77179 18.0324 6.92623 17.9727 7.07033C17.913 7.21442 17.8255 7.34534 17.7152 7.45561L17.7594 7.49981L17.7152 7.45562L8.96519 16.2056L8.85849 16.3123H9.00938H16.875C17.0242 16.3123 17.1673 16.3716 17.2728 16.4771C17.3782 16.5826 17.4375 16.7256 17.4375 16.8748C17.4375 17.024 17.3782 17.1671 17.2728 17.2726C17.1673 17.3781 17.0242 17.4373 16.875 17.4373H3.75001C3.43506 17.4373 3.13302 17.3122 2.91032 17.0895C2.68762 16.8668 2.56251 16.5648 2.56251 16.2498L2.56251 12.7584L2.56251 12.7582C2.56201 12.6023 2.59251 12.4478 2.65224 12.3038C2.71197 12.1597 2.79973 12.029 2.91043 11.9192ZM7.24141 16.3123H7.2673L7.28561 16.294L14.1606 9.41901L14.2048 9.37481L14.1606 9.33062L10.6692 5.83921L10.625 5.79502L10.5808 5.83921L3.70581 12.7142L3.68751 12.7325V12.7584V16.2498V16.3123H3.75001H7.24141ZM14.9558 8.53541L15 8.57961L15.0442 8.53541L16.9192 6.66041L16.9634 6.61622L16.9192 6.57203L13.4286 3.08062L13.3844 3.03642L13.3402 3.08062L11.4652 4.95562L11.421 4.99981L11.4652 5.044L14.9558 8.53541Z" fill="#20B66D" stroke="#20B66D" stroke-width="0.125"/>
</svg>
