<svg viewBox="0 0 16 16" fill="none" xmlns="http://www.w3.org/2000/svg">
<path d="M10.9998 13.0624C11.626 13.0645 12.2316 12.8384 12.7032 12.4263C13.1747 12.0143 13.48 11.4445 13.562 10.8237L13.5713 10.753H13.5065L10.5812 9.44283L10.5451 9.42668L10.5151 9.45233L8.99585 10.7484C8.99581 10.7485 8.99577 10.7485 8.99572 10.7485C8.98275 10.7595 8.96918 10.7698 8.95508 10.7793L8.99 10.8311M10.9998 13.0624L11 12.9999L10.9999 13.0624C10.9999 13.0624 10.9998 13.0624 10.9998 13.0624ZM10.9998 13.0624C8.86227 13.06 6.81297 12.2098 5.30151 10.6984C3.79004 9.18689 2.93986 7.13757 2.9375 5.00003M2.9375 5.00003C2.93511 4.37456 3.16046 3.7696 3.57148 3.29812C3.98251 2.82662 4.55111 2.52085 5.17109 2.43793L5.24934 2.42746L5.2426 2.49566L6.54894 5.41938L6.56486 5.455L6.53984 5.48495L5.24796 7.0312L5.24718 7.03213L5.24718 7.03212C5.2362 7.04475 5.22623 7.05821 5.21736 7.0724L5.21675 7.07338L5.21674 7.07337C5.12856 7.20868 5.07684 7.36446 5.06657 7.52563C5.05631 7.68675 5.08783 7.84779 5.15807 7.99315C5.7181 9.13848 6.87459 10.2864 8.03262 10.846C8.17904 10.9156 8.34101 10.946 8.5027 10.9343C8.66446 10.9226 8.82041 10.8691 8.95532 10.7791L8.99 10.8311M2.9375 5.00003C2.9375 5.00006 2.9375 5.00009 2.9375 5.00011L3 4.99987L2.9375 4.99994C2.9375 4.99997 2.9375 5 2.9375 5.00003ZM8.99 10.8311C9.00605 10.8203 9.02149 10.8086 9.03625 10.7961L5.10188 8.0205C5.66813 9.17862 6.835 10.3367 8.00563 10.9024C8.16185 10.9767 8.33468 11.0091 8.50722 10.9966C8.67975 10.9842 8.8461 10.9271 8.99 10.8311ZM13.8726 9.96066L13.8732 9.96095C14.0587 10.0415 14.2132 10.1798 14.3136 10.3553C14.414 10.5307 14.455 10.7339 14.4305 10.9345C14.321 11.7662 13.9125 12.5297 13.2813 13.0823C12.65 13.6349 11.8391 13.9389 11.0001 13.9374H11C6.07202 13.9374 2.0625 9.92786 2.0625 4.99987L2.0625 4.99976C2.061 4.16075 2.36496 3.34988 2.91761 2.7186C3.4702 2.0874 4.23363 1.6789 5.06536 1.56938C5.26604 1.54494 5.46925 1.58602 5.64468 1.68651C5.82019 1.78704 5.95848 1.94164 6.03891 2.12723L6.0389 2.12723L6.03923 2.12796L7.35688 5.06512V5.07207L7.36192 5.08385C7.42276 5.22592 7.44754 5.38082 7.43404 5.53477C7.42056 5.68864 7.36927 5.83679 7.28473 5.96605C7.27502 5.98059 7.26456 5.99442 7.25292 6.00899L5.95467 7.55277L5.92841 7.58399L5.94642 7.62059C6.42075 8.58444 7.42593 9.58195 8.40207 10.0561L8.43883 10.0739L8.46992 10.0474L9.99085 8.75084C9.9909 8.7508 9.99095 8.75075 9.991 8.75071C10.0041 8.73975 10.0177 8.72954 10.0319 8.72015L10.0322 8.71999C10.1618 8.63351 10.311 8.58072 10.4662 8.5664C10.6211 8.5521 10.7772 8.57658 10.9202 8.63762L10.9276 8.641L10.9282 8.64128L13.8726 9.96066Z" fill="currentColor" stroke="currentColor" stroke-width="0.125"/>
</svg>
