<svg viewBox="0 0 16 16" fill="currentColor" xmlns="http://www.w3.org/2000/svg">
<g clip-path="url(#clip0_5463_23126)">
<mask id="path-1-inside-1_5463_23126" fill="currentColor">
<path d="M9.5313 4.53223H4.5726C4.10731 4.53223 3.7294 4.91014 3.7294 5.37542V12.4902C3.7294 12.9555 4.10731 13.3334 4.5726 13.3334H9.5313C9.99659 13.3334 10.3745 12.9555 10.3745 12.4902V5.37542C10.3723 4.91014 9.9944 4.53223 9.5313 4.53223ZM9.78251 12.488C9.78251 12.6278 9.66892 12.7414 9.52911 12.7414H4.57041C4.43061 12.7414 4.31702 12.6278 4.31702 12.488V5.37542C4.31702 5.23562 4.43061 5.12203 4.57041 5.12203H9.52911C9.66892 5.12203 9.78251 5.23562 9.78251 5.37542V12.488Z"/>
</mask>
<path d="M9.5313 4.53223H4.5726C4.10731 4.53223 3.7294 4.91014 3.7294 5.37542V12.4902C3.7294 12.9555 4.10731 13.3334 4.5726 13.3334H9.5313C9.99659 13.3334 10.3745 12.9555 10.3745 12.4902V5.37542C10.3723 4.91014 9.9944 4.53223 9.5313 4.53223ZM9.78251 12.488C9.78251 12.6278 9.66892 12.7414 9.52911 12.7414H4.57041C4.43061 12.7414 4.31702 12.6278 4.31702 12.488V5.37542C4.31702 5.23562 4.43061 5.12203 4.57041 5.12203H9.52911C9.66892 5.12203 9.78251 5.23562 9.78251 5.37542V12.488Z" fill="black"/>
<path d="M10.3745 5.37542H11.3745L11.3745 5.37073L10.3745 5.37542ZM9.5313 3.53223H4.5726V5.53223H9.5313V3.53223ZM4.5726 3.53223C3.55503 3.53223 2.7294 4.35785 2.7294 5.37542H4.7294C4.7294 5.46242 4.6596 5.53223 4.5726 5.53223V3.53223ZM2.7294 5.37542V12.4902H4.7294V5.37542H2.7294ZM2.7294 12.4902C2.7294 13.5078 3.55503 14.3334 4.5726 14.3334V12.3334C4.65959 12.3334 4.7294 12.4032 4.7294 12.4902H2.7294ZM4.5726 14.3334H9.5313V12.3334H4.5726V14.3334ZM9.5313 14.3334C10.5489 14.3334 11.3745 13.5078 11.3745 12.4902H9.3745C9.3745 12.4032 9.4443 12.3334 9.5313 12.3334V14.3334ZM11.3745 12.4902V5.37542H9.3745V12.4902H11.3745ZM11.3745 5.37073C11.3697 4.35942 10.5493 3.53223 9.5313 3.53223V5.53223C9.43954 5.53223 9.37489 5.46086 9.37451 5.38012L11.3745 5.37073ZM8.78251 12.488C8.78251 12.0755 9.11663 11.7414 9.52911 11.7414V13.7414C10.2212 13.7414 10.7825 13.1801 10.7825 12.488H8.78251ZM9.52911 11.7414H4.57041V13.7414H9.52911V11.7414ZM4.57041 11.7414C4.98289 11.7414 5.31702 12.0755 5.31702 12.488H3.31702C3.31702 13.1801 3.87832 13.7414 4.57041 13.7414V11.7414ZM5.31702 12.488V5.37542H3.31702V12.488H5.31702ZM5.31702 5.37542C5.31702 5.7879 4.98289 6.12203 4.57041 6.12203V4.12203C3.87832 4.12203 3.31702 4.68333 3.31702 5.37542H5.31702ZM4.57041 6.12203H9.52911V4.12203H4.57041V6.12203ZM9.52911 6.12203C9.11663 6.12203 8.78251 5.7879 8.78251 5.37542H10.7825C10.7825 4.68333 10.2212 4.12203 9.52911 4.12203V6.12203ZM8.78251 5.37542V12.488H10.7825V5.37542H8.78251Z" fill="#EBECEF" mask="url(#path-1-inside-1_5463_23126)"/>
<mask id="path-3-inside-2_5463_23126" fill="currentColor">
<path d="M11.4274 2.66675H6.4687C6.00341 2.66675 5.6255 3.04466 5.6255 3.50995C5.6255 3.67378 5.75657 3.80485 5.9204 3.80485C6.08424 3.80485 6.2153 3.67378 6.2153 3.50995C6.2153 3.37014 6.3289 3.25655 6.4687 3.25655H11.4274C11.5672 3.25655 11.6808 3.37014 11.6808 3.50995V10.6247C11.6808 10.7645 11.5672 10.8781 11.4274 10.8781C11.2636 10.8781 11.1325 11.0092 11.1325 11.173C11.1325 11.3368 11.2636 11.4679 11.4274 11.4679C11.8927 11.4679 12.2706 11.09 12.2706 10.6247V3.50995C12.2706 3.04466 11.8927 2.66675 11.4274 2.66675Z"/>
</mask>
<path d="M11.4274 2.66675H6.4687C6.00341 2.66675 5.6255 3.04466 5.6255 3.50995C5.6255 3.67378 5.75657 3.80485 5.9204 3.80485C6.08424 3.80485 6.2153 3.67378 6.2153 3.50995C6.2153 3.37014 6.3289 3.25655 6.4687 3.25655H11.4274C11.5672 3.25655 11.6808 3.37014 11.6808 3.50995V10.6247C11.6808 10.7645 11.5672 10.8781 11.4274 10.8781C11.2636 10.8781 11.1325 11.0092 11.1325 11.173C11.1325 11.3368 11.2636 11.4679 11.4274 11.4679C11.8927 11.4679 12.2706 11.09 12.2706 10.6247V3.50995C12.2706 3.04466 11.8927 2.66675 11.4274 2.66675Z" fill="black"/>
<path d="M12.2706 3.50995H13.2706H12.2706ZM11.4274 1.66675H6.4687V3.66675H11.4274V1.66675ZM6.4687 1.66675C5.45113 1.66675 4.6255 2.49237 4.6255 3.50995H6.6255C6.6255 3.59694 6.5557 3.66675 6.4687 3.66675V1.66675ZM4.6255 3.50995C4.6255 4.22606 5.20429 4.80485 5.9204 4.80485V2.80485C6.30886 2.80485 6.6255 3.12149 6.6255 3.50995H4.6255ZM5.9204 4.80485C6.63652 4.80485 7.2153 4.22606 7.2153 3.50995H5.2153C5.2153 3.12149 5.53195 2.80485 5.9204 2.80485V4.80485ZM7.2153 3.50995C7.2153 3.92243 6.88118 4.25655 6.4687 4.25655V2.25655C5.77661 2.25655 5.2153 2.81786 5.2153 3.50995H7.2153ZM6.4687 4.25655H11.4274V2.25655H6.4687V4.25655ZM11.4274 4.25655C11.0149 4.25655 10.6808 3.92243 10.6808 3.50995H12.6808C12.6808 2.81785 12.1195 2.25655 11.4274 2.25655V4.25655ZM10.6808 3.50995V10.6247H12.6808V3.50995H10.6808ZM10.6808 10.6247C10.6808 10.2122 11.0149 9.87809 11.4274 9.87809V11.8781C12.1195 11.8781 12.6808 11.3168 12.6808 10.6247H10.6808ZM11.4274 9.87809C10.7113 9.87809 10.1325 10.4569 10.1325 11.173H12.1325C12.1325 11.5614 11.8159 11.8781 11.4274 11.8781V9.87809ZM10.1325 11.173C10.1325 11.8891 10.7113 12.4679 11.4274 12.4679V10.4679C11.8159 10.4679 12.1325 10.7845 12.1325 11.173H10.1325ZM11.4274 12.4679C12.445 12.4679 13.2706 11.6423 13.2706 10.6247H11.2706C11.2706 10.5377 11.3404 10.4679 11.4274 10.4679V12.4679ZM13.2706 10.6247V3.50995H11.2706V10.6247H13.2706ZM13.2706 3.50995C13.2706 2.49237 12.445 1.66675 11.4274 1.66675V3.66675C11.3404 3.66675 11.2706 3.59694 11.2706 3.50995H13.2706Z" fill="#EBECEF" mask="url(#path-3-inside-2_5463_23126)"/>
</g>
<defs>
<clipPath id="clip0_5463_23126">
<rect width="10.6667" height="10.6667" fill="currentColor" transform="translate(2.66667 2.66675)"/>
</clipPath>
</defs>
</svg>
