<svg  viewBox="0 0 22 22" fill="none" xmlns="http://www.w3.org/2000/svg">
<path d="M8.56249 9.95159L8.5625 9.95158C8.65753 9.89671 8.73644 9.81779 8.7913 9.72275C8.84616 9.62771 8.87503 9.5199 8.875 9.41017V9.41016V3.22284C8.87442 3.12325 8.85004 3.02524 8.80391 2.93698C8.75775 2.84867 8.69114 2.77268 8.60965 2.71534C8.52815 2.658 8.43412 2.62098 8.33541 2.60737C8.2367 2.59375 8.13616 2.60393 8.04219 2.63707C6.04958 3.34231 4.37389 4.73519 3.31632 6.56533C2.25874 8.39549 1.88867 10.5429 2.27263 12.6215C2.29085 12.7198 2.33243 12.8124 2.39388 12.8914C2.45533 12.9704 2.53485 13.0335 2.62575 13.0753L2.62608 13.0755C2.70786 13.1137 2.79707 13.1334 2.88734 13.1332H2.88752C2.99721 13.1332 3.10497 13.1044 3.19998 13.0496L8.56249 9.95159ZM8.56249 9.95159L3.20002 13.0496L8.56249 9.95159ZM18.7076 6.60393L18.7077 6.60389C18.7062 6.60088 18.7048 6.598 18.7034 6.59523C18.6969 6.58222 18.6917 6.57161 18.6853 6.56126L18.6824 6.55642C18.6741 6.54286 18.6679 6.53276 18.6605 6.52197L18.658 6.51822L18.6581 6.51814C17.8756 5.1816 16.7571 4.07297 15.4137 3.30231C14.0703 2.53166 12.5487 2.1258 11 2.125L18.7076 6.60393ZM18.7076 6.60393L18.7094 6.60699M18.7076 6.60393L18.7094 6.60699M18.7094 6.60699C19.4751 7.9443 19.877 9.45892 19.875 10.9999V11C19.8762 12.9486 19.2362 14.8434 18.0535 16.3921C16.8709 17.9407 15.2115 19.0571 13.3314 19.569C11.4513 20.0809 9.45493 19.9597 7.65048 19.2243C5.84602 18.4889 4.33374 17.1801 3.34702 15.4998L3.34689 15.4996C3.30479 15.4286 3.27718 15.3499 3.26566 15.2681C3.25415 15.1863 3.25895 15.1031 3.2798 15.0232C3.30065 14.9433 3.33713 14.8683 3.38713 14.8026C3.43713 14.7368 3.49966 14.6817 3.57111 14.6402L3.57122 14.6402L10.344 10.6956L10.375 10.6776M18.7094 6.60699L10.375 10.6776M10.375 10.6776V10.6416M10.375 10.6776V10.6416M10.375 10.6416V2.75C10.375 2.58424 10.4408 2.42527 10.5581 2.30806C10.6753 2.19086 10.8342 2.12501 11 2.125L10.375 10.6416ZM2.59961 13.1321C2.68972 13.1742 2.78802 13.196 2.8875 13.1957L2.59961 13.1321ZM7.625 4.26422V4.16206L7.53405 4.20857C6.28302 4.8483 5.23279 5.82083 4.49898 7.01908C3.76516 8.21734 3.37623 9.59485 3.375 10.9999V11V11.0012C3.375 11.1276 3.375 11.2603 3.38551 11.3925L3.39335 11.4912L3.47905 11.4417L7.59374 9.06726L7.625 9.04922V9.01312V4.26422ZM11.6932 3.4062L11.625 3.39992V3.46844V9.8407V9.94943L11.719 9.89471L17.2095 6.69698L17.2684 6.66267L17.2291 6.60695C16.5929 5.70467 15.7685 4.9512 14.8127 4.39859C13.8569 3.84599 12.7926 3.50739 11.6932 3.4062ZM10.9998 18.625H11C12.2794 18.6249 13.5381 18.3029 14.6604 17.6886C15.7826 17.0743 16.7323 16.1875 17.4218 15.1099C18.1114 14.0323 18.5188 12.7985 18.6064 11.5221C18.694 10.2458 18.459 8.96789 17.9232 7.80616L17.8944 7.74373L17.835 7.77834L11.3235 11.5708L11.3234 11.5707L11.3214 11.572L11.3035 11.5834L4.82488 15.3563L4.7653 15.391L4.80565 15.4469C5.5139 16.428 6.44441 17.2275 7.52104 17.7799C8.59766 18.3323 9.78978 18.6219 10.9998 18.625Z" fill="currentColor" stroke="currentColor" stroke-width="0.125"/>
</svg>
