<svg viewBox="0 0 20 21" fill="currentColor" xmlns="http://www.w3.org/2000/svg">
<path d="M16.25 3.40775H14.375V2.78275C14.375 2.61699 14.3092 2.45801 14.1919 2.3408C14.0747 2.22359 13.9158 2.15775 13.75 2.15775C13.5842 2.15775 13.4253 2.22359 13.3081 2.3408C13.1908 2.45801 13.125 2.61699 13.125 2.78275V3.40775H6.875V2.78275C6.875 2.61699 6.80915 2.45801 6.69194 2.3408C6.57473 2.22359 6.41576 2.15775 6.25 2.15775C6.08424 2.15775 5.92527 2.22359 5.80806 2.3408C5.69085 2.45801 5.625 2.61699 5.625 2.78275V3.40775H3.75C3.41848 3.40775 3.10054 3.53944 2.86612 3.77386C2.6317 4.00828 2.5 4.32622 2.5 4.65775V17.1577C2.5 17.4893 2.6317 17.8072 2.86612 18.0416C3.10054 18.276 3.41848 18.4077 3.75 18.4077H16.25C16.5815 18.4077 16.8995 18.276 17.1339 18.0416C17.3683 17.8072 17.5 17.4893 17.5 17.1577V4.65775C17.5 4.32622 17.3683 4.00828 17.1339 3.77386C16.8995 3.53944 16.5815 3.40775 16.25 3.40775ZM5.625 4.65775V5.28275C5.625 5.44851 5.69085 5.60748 5.80806 5.72469C5.92527 5.8419 6.08424 5.90775 6.25 5.90775C6.41576 5.90775 6.57473 5.8419 6.69194 5.72469C6.80915 5.60748 6.875 5.44851 6.875 5.28275V4.65775H13.125V5.28275C13.125 5.44851 13.1908 5.60748 13.3081 5.72469C13.4253 5.8419 13.5842 5.90775 13.75 5.90775C13.9158 5.90775 14.0747 5.8419 14.1919 5.72469C14.3092 5.60748 14.375 5.44851 14.375 5.28275V4.65775H16.25V7.15775H3.75V4.65775H5.625ZM16.25 17.1577H3.75V8.40775H16.25V17.1577ZM13.2547 10.4656C13.3128 10.5236 13.3589 10.5925 13.3904 10.6684C13.4218 10.7443 13.438 10.8256 13.438 10.9077C13.438 10.9899 13.4218 11.0712 13.3904 11.1471C13.3589 11.223 13.3128 11.2919 13.2547 11.3499L9.50469 15.0999C9.44664 15.158 9.37771 15.2041 9.30184 15.2356C9.22596 15.267 9.14463 15.2832 9.0625 15.2832C8.98037 15.2832 8.89904 15.267 8.82316 15.2356C8.74729 15.2041 8.67836 15.158 8.62031 15.0999L6.74531 13.2249C6.62804 13.1077 6.56215 12.9486 6.56215 12.7827C6.56215 12.6169 6.62804 12.4578 6.74531 12.3406C6.86259 12.2233 7.02165 12.1574 7.1875 12.1574C7.35335 12.1574 7.51241 12.2233 7.62969 12.3406L9.0625 13.7742L12.3703 10.4656C12.4284 10.4074 12.4973 10.3613 12.5732 10.3299C12.649 10.2984 12.7304 10.2823 12.8125 10.2823C12.8946 10.2823 12.976 10.2984 13.0518 10.3299C13.1277 10.3613 13.1966 10.4074 13.2547 10.4656Z" fill="currentColor"/>
</svg>
