<svg viewBox="0 0 22 22" fill="none" xmlns="http://www.w3.org/2000/svg">
<mask id="path-1-inside-1_5662_25044" fill="white">
<path d="M11 6.87541C10.1842 6.87541 9.38663 7.11733 8.70827 7.57059C8.02992 8.02386 7.50121 8.66809 7.189 9.42184C6.87679 10.1756 6.7951 11.005 6.95426 11.8052C7.11343 12.6053 7.50629 13.3403 8.08319 13.9172C8.66008 14.4941 9.39508 14.887 10.1953 15.0461C10.9954 15.2053 11.8248 15.1236 12.5786 14.8114C13.3323 14.4992 13.9766 13.9705 14.4298 13.2921C14.8831 12.6138 15.125 11.8163 15.125 11.0004C15.1239 9.90674 14.6889 8.85819 13.9156 8.08485C13.1422 7.31151 12.0937 6.87654 11 6.87541ZM11 13.7504C10.4561 13.7504 9.92442 13.5891 9.47218 13.2869C9.01995 12.9848 8.66747 12.5553 8.45933 12.0528C8.25119 11.5503 8.19673 10.9974 8.30284 10.4639C8.40895 9.93046 8.67086 9.44046 9.05546 9.05586C9.44005 8.67127 9.93006 8.40936 10.4635 8.30325C10.997 8.19714 11.5499 8.2516 12.0524 8.45974C12.5549 8.66788 12.9844 9.02035 13.2865 9.47259C13.5887 9.92482 13.75 10.4565 13.75 11.0004C13.75 11.7298 13.4603 12.4292 12.9445 12.9449C12.4288 13.4607 11.7293 13.7504 11 13.7504ZM18.5625 11.186C18.5659 11.0623 18.5659 10.9385 18.5625 10.8148L19.8447 9.21291C19.9119 9.1288 19.9585 9.03008 19.9805 8.9247C20.0026 8.81931 19.9997 8.71021 19.9719 8.60619C19.7617 7.81608 19.4473 7.05746 19.0369 6.35033C18.9831 6.25779 18.9086 6.17907 18.819 6.12044C18.7295 6.0618 18.6276 6.02488 18.5213 6.01259L16.4828 5.78572C16.398 5.69634 16.3121 5.61041 16.225 5.52791L15.9844 3.48431C15.972 3.37793 15.9349 3.27591 15.8762 3.18639C15.8174 3.09687 15.7385 3.02232 15.6458 2.96869C14.9384 2.55906 14.1798 2.24495 13.3899 2.03455C13.2858 2.00687 13.1767 2.00404 13.0713 2.02628C12.9659 2.04852 12.8672 2.09522 12.7832 2.16259L11.1856 3.43791C11.0619 3.43791 10.9381 3.43791 10.8144 3.43791L9.2125 2.1583C9.1284 2.09107 9.02967 2.04453 8.92429 2.02244C8.81891 2.00035 8.70981 2.00332 8.60578 2.03111C7.8158 2.24168 7.05724 2.55609 6.34992 2.96611C6.25738 3.01984 6.17867 3.09444 6.12003 3.18395C6.0614 3.27347 6.02447 3.37543 6.01219 3.48173L5.78531 5.52361C5.69594 5.60897 5.61 5.69491 5.5275 5.78142L3.48391 6.01603C3.37753 6.02841 3.27551 6.06547 3.18599 6.12425C3.09647 6.18304 3.02192 6.26193 2.96828 6.35462C2.55866 7.06203 2.24455 7.82058 2.03414 8.61048C2.00647 8.71458 2.00364 8.82371 2.02588 8.9291C2.04812 9.03449 2.09481 9.13317 2.16219 9.2172L3.4375 10.8148C3.4375 10.9385 3.4375 11.0623 3.4375 11.186L2.15789 12.7879C2.09066 12.872 2.04413 12.9707 2.02203 13.0761C1.99994 13.1815 2.00291 13.2906 2.0307 13.3946C2.2409 14.1847 2.55533 14.9433 2.9657 15.6505C3.01944 15.743 3.09403 15.8217 3.18355 15.8804C3.27306 15.939 3.37503 15.9759 3.48133 15.9882L5.51977 16.2151C5.60513 16.3045 5.69107 16.3904 5.77758 16.4729L6.01563 18.5165C6.028 18.6229 6.06506 18.7249 6.12385 18.8144C6.18263 18.9039 6.26152 18.9785 6.35422 19.0321C7.06163 19.4417 7.82018 19.7559 8.61008 19.9663C8.71417 19.9939 8.82331 19.9968 8.9287 19.9745C9.03408 19.9523 9.13277 19.9056 9.2168 19.8382L10.8144 18.5629C10.9381 18.5663 11.0619 18.5663 11.1856 18.5629L12.7875 19.8451C12.8716 19.9123 12.9703 19.9589 13.0757 19.981C13.1811 20.003 13.2902 20.0001 13.3942 19.9723C14.1843 19.7621 14.9429 19.4477 15.6501 19.0373C15.7426 18.9835 15.8213 18.909 15.88 18.8194C15.9386 18.7299 15.9755 18.628 15.9878 18.5217L16.2147 16.4832C16.3041 16.3984 16.39 16.3125 16.4725 16.2254L18.5161 15.9848C18.6225 15.9724 18.7245 15.9353 18.814 15.8766C18.9035 15.8178 18.9781 15.7389 19.0317 15.6462C19.4413 14.9388 19.7555 14.1802 19.9659 13.3903C19.9935 13.2862 19.9964 13.1771 19.9741 13.0717C19.9519 12.9663 19.9052 12.8676 19.8378 12.7836L18.5625 11.186ZM17.1789 10.6274C17.1935 10.8759 17.1935 11.1249 17.1789 11.3734C17.1687 11.5435 17.222 11.7113 17.3284 11.8443L18.5479 13.368C18.408 13.8127 18.2288 14.2441 18.0125 14.657L16.0703 14.877C15.9012 14.8958 15.745 14.9767 15.632 15.1039C15.4666 15.29 15.2904 15.4662 15.1044 15.6316C14.9771 15.7446 14.8963 15.9007 14.8775 16.0699L14.6618 18.0103C14.2489 18.2267 13.8175 18.4059 13.3727 18.5457L11.8482 17.3263C11.7262 17.2288 11.5747 17.1758 11.4185 17.1759H11.3773C11.1288 17.1905 10.8798 17.1905 10.6313 17.1759C10.4612 17.1656 10.2934 17.2189 10.1604 17.3254L8.63242 18.5457C8.18773 18.4058 7.75634 18.2266 7.34336 18.0103L7.12336 16.0707C7.10459 15.9016 7.02375 15.7454 6.89649 15.6324C6.71044 15.467 6.53425 15.2908 6.36883 15.1048C6.25585 14.9775 6.09969 14.8967 5.93055 14.8779L3.99008 14.6613C3.77368 14.2484 3.59451 13.817 3.45469 13.3723L4.67414 11.8478C4.78062 11.7147 4.83391 11.5469 4.82367 11.3768C4.80906 11.1284 4.80906 10.8793 4.82367 10.6309C4.83391 10.4608 4.78062 10.293 4.67414 10.1599L3.45469 8.63283C3.59462 8.18813 3.77378 7.75675 3.99008 7.34377L5.92969 7.12377C6.09883 7.10499 6.25499 7.02415 6.36797 6.89689C6.53339 6.71084 6.70958 6.53466 6.89563 6.36923C7.0234 6.25618 7.10457 6.09966 7.12336 5.93009L7.33906 3.99048C7.752 3.77409 8.18339 3.59491 8.62813 3.45509L10.1527 4.67455C10.2857 4.78103 10.4535 4.83432 10.6236 4.82408C10.872 4.80947 11.1211 4.80947 11.3695 4.82408C11.5396 4.83432 11.7074 4.78103 11.8405 4.67455L13.3676 3.45509C13.8123 3.59502 14.2437 3.77419 14.6566 3.99048L14.8766 5.93009C14.8954 6.09923 14.9763 6.25539 15.1035 6.36837C15.2896 6.5338 15.4658 6.70998 15.6312 6.89603C15.7442 7.02329 15.9003 7.10413 16.0695 7.12291L18.0099 7.33861C18.2263 7.75154 18.4055 8.18293 18.5453 8.62767L17.3259 10.1522C17.2184 10.2863 17.165 10.4559 17.1763 10.6274H17.1789Z"/>
</mask>
<path d="M11 6.87541C10.1842 6.87541 9.38663 7.11733 8.70827 7.57059C8.02992 8.02386 7.50121 8.66809 7.189 9.42184C6.87679 10.1756 6.7951 11.005 6.95426 11.8052C7.11343 12.6053 7.50629 13.3403 8.08319 13.9172C8.66008 14.4941 9.39508 14.887 10.1953 15.0461C10.9954 15.2053 11.8248 15.1236 12.5786 14.8114C13.3323 14.4992 13.9766 13.9705 14.4298 13.2921C14.8831 12.6138 15.125 11.8163 15.125 11.0004C15.1239 9.90674 14.6889 8.85819 13.9156 8.08485C13.1422 7.31151 12.0937 6.87654 11 6.87541ZM11 13.7504C10.4561 13.7504 9.92442 13.5891 9.47218 13.2869C9.01995 12.9848 8.66747 12.5553 8.45933 12.0528C8.25119 11.5503 8.19673 10.9974 8.30284 10.4639C8.40895 9.93046 8.67086 9.44046 9.05546 9.05586C9.44005 8.67127 9.93006 8.40936 10.4635 8.30325C10.997 8.19714 11.5499 8.2516 12.0524 8.45974C12.5549 8.66788 12.9844 9.02035 13.2865 9.47259C13.5887 9.92482 13.75 10.4565 13.75 11.0004C13.75 11.7298 13.4603 12.4292 12.9445 12.9449C12.4288 13.4607 11.7293 13.7504 11 13.7504ZM18.5625 11.186C18.5659 11.0623 18.5659 10.9385 18.5625 10.8148L19.8447 9.21291C19.9119 9.1288 19.9585 9.03008 19.9805 8.9247C20.0026 8.81931 19.9997 8.71021 19.9719 8.60619C19.7617 7.81608 19.4473 7.05746 19.0369 6.35033C18.9831 6.25779 18.9086 6.17907 18.819 6.12044C18.7295 6.0618 18.6276 6.02488 18.5213 6.01259L16.4828 5.78572C16.398 5.69634 16.3121 5.61041 16.225 5.52791L15.9844 3.48431C15.972 3.37793 15.9349 3.27591 15.8762 3.18639C15.8174 3.09687 15.7385 3.02232 15.6458 2.96869C14.9384 2.55906 14.1798 2.24495 13.3899 2.03455C13.2858 2.00687 13.1767 2.00404 13.0713 2.02628C12.9659 2.04852 12.8672 2.09522 12.7832 2.16259L11.1856 3.43791C11.0619 3.43791 10.9381 3.43791 10.8144 3.43791L9.2125 2.1583C9.1284 2.09107 9.02967 2.04453 8.92429 2.02244C8.81891 2.00035 8.70981 2.00332 8.60578 2.03111C7.8158 2.24168 7.05724 2.55609 6.34992 2.96611C6.25738 3.01984 6.17867 3.09444 6.12003 3.18395C6.0614 3.27347 6.02447 3.37543 6.01219 3.48173L5.78531 5.52361C5.69594 5.60897 5.61 5.69491 5.5275 5.78142L3.48391 6.01603C3.37753 6.02841 3.27551 6.06547 3.18599 6.12425C3.09647 6.18304 3.02192 6.26193 2.96828 6.35462C2.55866 7.06203 2.24455 7.82058 2.03414 8.61048C2.00647 8.71458 2.00364 8.82371 2.02588 8.9291C2.04812 9.03449 2.09481 9.13317 2.16219 9.2172L3.4375 10.8148C3.4375 10.9385 3.4375 11.0623 3.4375 11.186L2.15789 12.7879C2.09066 12.872 2.04413 12.9707 2.02203 13.0761C1.99994 13.1815 2.00291 13.2906 2.0307 13.3946C2.2409 14.1847 2.55533 14.9433 2.9657 15.6505C3.01944 15.743 3.09403 15.8217 3.18355 15.8804C3.27306 15.939 3.37503 15.9759 3.48133 15.9882L5.51977 16.2151C5.60513 16.3045 5.69107 16.3904 5.77758 16.4729L6.01563 18.5165C6.028 18.6229 6.06506 18.7249 6.12385 18.8144C6.18263 18.9039 6.26152 18.9785 6.35422 19.0321C7.06163 19.4417 7.82018 19.7559 8.61008 19.9663C8.71417 19.9939 8.82331 19.9968 8.9287 19.9745C9.03408 19.9523 9.13277 19.9056 9.2168 19.8382L10.8144 18.5629C10.9381 18.5663 11.0619 18.5663 11.1856 18.5629L12.7875 19.8451C12.8716 19.9123 12.9703 19.9589 13.0757 19.981C13.1811 20.003 13.2902 20.0001 13.3942 19.9723C14.1843 19.7621 14.9429 19.4477 15.6501 19.0373C15.7426 18.9835 15.8213 18.909 15.88 18.8194C15.9386 18.7299 15.9755 18.628 15.9878 18.5217L16.2147 16.4832C16.3041 16.3984 16.39 16.3125 16.4725 16.2254L18.5161 15.9848C18.6225 15.9724 18.7245 15.9353 18.814 15.8766C18.9035 15.8178 18.9781 15.7389 19.0317 15.6462C19.4413 14.9388 19.7555 14.1802 19.9659 13.3903C19.9935 13.2862 19.9964 13.1771 19.9741 13.0717C19.9519 12.9663 19.9052 12.8676 19.8378 12.7836L18.5625 11.186ZM17.1789 10.6274C17.1935 10.8759 17.1935 11.1249 17.1789 11.3734C17.1687 11.5435 17.222 11.7113 17.3284 11.8443L18.5479 13.368C18.408 13.8127 18.2288 14.2441 18.0125 14.657L16.0703 14.877C15.9012 14.8958 15.745 14.9767 15.632 15.1039C15.4666 15.29 15.2904 15.4662 15.1044 15.6316C14.9771 15.7446 14.8963 15.9007 14.8775 16.0699L14.6618 18.0103C14.2489 18.2267 13.8175 18.4059 13.3727 18.5457L11.8482 17.3263C11.7262 17.2288 11.5747 17.1758 11.4185 17.1759H11.3773C11.1288 17.1905 10.8798 17.1905 10.6313 17.1759C10.4612 17.1656 10.2934 17.2189 10.1604 17.3254L8.63242 18.5457C8.18773 18.4058 7.75634 18.2266 7.34336 18.0103L7.12336 16.0707C7.10459 15.9016 7.02375 15.7454 6.89649 15.6324C6.71044 15.467 6.53425 15.2908 6.36883 15.1048C6.25585 14.9775 6.09969 14.8967 5.93055 14.8779L3.99008 14.6613C3.77368 14.2484 3.59451 13.817 3.45469 13.3723L4.67414 11.8478C4.78062 11.7147 4.83391 11.5469 4.82367 11.3768C4.80906 11.1284 4.80906 10.8793 4.82367 10.6309C4.83391 10.4608 4.78062 10.293 4.67414 10.1599L3.45469 8.63283C3.59462 8.18813 3.77378 7.75675 3.99008 7.34377L5.92969 7.12377C6.09883 7.10499 6.25499 7.02415 6.36797 6.89689C6.53339 6.71084 6.70958 6.53466 6.89563 6.36923C7.0234 6.25618 7.10457 6.09966 7.12336 5.93009L7.33906 3.99048C7.752 3.77409 8.18339 3.59491 8.62813 3.45509L10.1527 4.67455C10.2857 4.78103 10.4535 4.83432 10.6236 4.82408C10.872 4.80947 11.1211 4.80947 11.3695 4.82408C11.5396 4.83432 11.7074 4.78103 11.8405 4.67455L13.3676 3.45509C13.8123 3.59502 14.2437 3.77419 14.6566 3.99048L14.8766 5.93009C14.8954 6.09923 14.9763 6.25539 15.1035 6.36837C15.2896 6.5338 15.4658 6.70998 15.6312 6.89603C15.7442 7.02329 15.9003 7.10413 16.0695 7.12291L18.0099 7.33861C18.2263 7.75154 18.4055 8.18293 18.5453 8.62767L17.3259 10.1522C17.2184 10.2863 17.165 10.4559 17.1763 10.6274H17.1789Z" fill="currentColor" stroke="currentColor" stroke-width="0.25" mask="url(#path-1-inside-1_5662_25044)"/>
</svg>
