<svg width="13" height="14" viewBox="0 0 13 14" fill="none" xmlns="http://www.w3.org/2000/svg">
<path d="M3.28702 11.3116L3.25945 11.3576L3.30072 11.3919C4.21495 12.1503 5.34068 12.5625 6.5 12.5625C7.65933 12.5625 8.78506 12.1503 9.69928 11.3919L9.74056 11.3576L9.71299 11.3116C9.36865 10.7372 8.89402 10.264 8.33251 9.93607C7.77096 9.6081 7.14075 9.43604 6.5 9.43604C5.85926 9.43604 5.22904 9.6081 4.6675 9.93607C4.10598 10.264 3.63135 10.7372 3.28702 11.3116ZM10.3007 10.6846L10.3468 10.7559L10.4011 10.6906C11.0694 9.88912 11.5058 8.89907 11.6583 7.83985C11.8109 6.78063 11.6732 5.69687 11.2616 4.71894C10.85 3.74099 10.1818 2.91019 9.33711 2.32703C8.49233 1.74382 7.50707 1.43328 6.5 1.43328C5.49294 1.43328 4.50768 1.74382 3.6629 2.32703C2.81816 2.91019 2.15005 3.74099 1.73844 4.71894C1.32685 5.69687 1.18913 6.78063 1.34168 7.83985C1.49424 8.89907 1.93065 9.88912 2.59887 10.6906L2.65324 10.7559L2.69935 10.6846C3.21563 9.88657 3.94115 9.26984 4.78423 8.91126L4.87795 8.87141L4.79997 8.8059C4.35076 8.4285 4.0224 7.91066 3.86125 7.324C3.70009 6.73733 3.71434 6.1116 3.90198 5.53403C4.0896 4.95647 4.44108 4.45633 4.90682 4.10271C5.37249 3.74914 5.92937 3.55949 6.5 3.55949C7.07064 3.55949 7.62751 3.74914 8.09319 4.10271C8.55893 4.45633 8.9104 4.95647 9.09803 5.53403C9.28566 6.1116 9.29991 6.73733 9.13876 7.324C8.9776 7.91066 8.64924 8.4285 8.20003 8.8059L8.12206 8.87141L8.21578 8.91126C9.05886 9.26984 9.78438 9.88657 10.3007 10.6846ZM3.15077 1.64634C4.14252 0.939499 5.30804 0.562507 6.49997 0.5625C8.0977 0.56431 9.63038 1.24208 10.7615 2.44856C11.8927 3.65519 12.5296 5.29201 12.5313 7.00006C12.5312 8.27412 12.177 9.51927 11.5138 10.578C10.8506 11.6368 9.90835 12.4613 8.80672 12.948C7.70515 13.4348 6.49327 13.562 5.32414 13.314C4.15498 13.0659 3.08044 12.4535 2.23667 11.5534C1.39285 10.6534 0.817793 9.50614 0.584783 8.25663C0.351772 7.00711 0.471392 5.71198 0.928373 4.53518C1.38535 3.3584 2.15895 2.35324 3.15077 1.64634ZM4.88803 5.35568C4.67565 5.69472 4.5625 6.09294 4.5625 6.5C4.5625 7.04575 4.76571 7.5699 5.12858 7.95696C5.49158 8.34415 5.9848 8.5625 6.5 8.5625C6.88414 8.5625 7.25928 8.44098 7.57797 8.21384C7.89661 7.98673 8.14437 7.66438 8.29054 7.28799C8.43669 6.91162 8.47488 6.49768 8.40042 6.09836C8.32595 5.69904 8.14206 5.33171 7.87142 5.04304C7.60075 4.75432 7.25539 4.5572 6.87877 4.47729C6.50211 4.39737 6.11174 4.43843 5.75721 4.59507C5.40274 4.75169 5.10044 5.0166 4.88803 5.35568Z" fill="#6B7280" stroke="#6B7280" stroke-width="0.125"/>
</svg>
