<svg viewBox="0 0 20 21" fill="currentColor" xmlns="http://www.w3.org/2000/svg">
<path d="M9.16026 13.2452C9.99791 12.6875 10.6339 11.8751 10.9741 10.928C11.3143 9.98096 11.3407 8.94956 11.0494 7.98634C10.7581 7.02311 10.1646 6.1792 9.35653 5.5794C8.54851 4.97961 7.56891 4.65576 6.5626 4.65576C5.55629 4.65576 4.57669 4.97961 3.76867 5.5794C2.96065 6.1792 2.3671 7.02311 2.0758 7.98634C1.78449 8.94956 1.8109 9.98096 2.15111 10.928C2.49133 11.8751 3.12729 12.6875 3.96494 13.2452C2.4497 13.8036 1.15565 14.8371 0.275881 16.1913C0.229643 16.26 0.197527 16.3372 0.181398 16.4184C0.165269 16.4997 0.165449 16.5833 0.181929 16.6645C0.198409 16.7457 0.230858 16.8228 0.277392 16.8913C0.323926 16.9598 0.383616 17.0184 0.452992 17.0636C0.522368 17.1089 0.600047 17.1399 0.681512 17.1549C0.762978 17.1698 0.846606 17.1685 0.927534 17.1508C1.00846 17.1332 1.08508 17.0996 1.15293 17.0521C1.22078 17.0046 1.2785 16.9441 1.32276 16.8741C1.89025 16.0012 2.66678 15.284 3.58185 14.7875C4.49691 14.291 5.52151 14.0309 6.5626 14.0309C7.60369 14.0309 8.62829 14.291 9.54335 14.7875C10.4584 15.284 11.235 16.0012 11.8024 16.8741C11.8941 17.0103 12.0357 17.105 12.1966 17.1377C12.3576 17.1704 12.5249 17.1384 12.6624 17.0487C12.8 16.959 12.8967 16.8187 12.9317 16.6583C12.9666 16.4978 12.9371 16.3301 12.8493 16.1913C11.9695 14.8371 10.6755 13.8036 9.16026 13.2452ZM3.1251 9.34516C3.1251 8.66529 3.32671 8.00068 3.70442 7.43539C4.08214 6.8701 4.619 6.4295 5.24713 6.16933C5.87525 5.90915 6.56641 5.84108 7.23322 5.97371C7.90003 6.10635 8.51254 6.43374 8.99328 6.91448C9.47402 7.39523 9.80141 8.00773 9.93405 8.67454C10.0667 9.34135 9.99861 10.0325 9.73844 10.6606C9.47826 11.2888 9.03767 11.8256 8.47237 12.2033C7.90708 12.5811 7.24247 12.7827 6.5626 12.7827C5.65124 12.7816 4.77749 12.4191 4.13306 11.7747C3.48863 11.1303 3.12613 10.2565 3.1251 9.34516ZM19.5423 17.0561C19.4035 17.1466 19.2344 17.1783 19.0722 17.1442C18.91 17.11 18.768 17.0129 18.6774 16.8741C18.1106 16.0007 17.3342 15.2832 16.4189 14.7869C15.5037 14.2906 14.4788 14.0313 13.4376 14.0327C13.2718 14.0327 13.1129 13.9668 12.9957 13.8496C12.8784 13.7324 12.8126 13.5734 12.8126 13.4077C12.8126 13.2419 12.8784 13.0829 12.9957 12.9657C13.1129 12.8485 13.2718 12.7827 13.4376 12.7827C13.9438 12.7822 14.4437 12.6699 14.9015 12.4538C15.3593 12.2378 15.7637 11.9233 16.0859 11.5328C16.4081 11.1423 16.64 10.6855 16.7652 10.195C16.8903 9.70448 16.9056 9.19238 16.8099 8.69528C16.7142 8.19818 16.5098 7.72836 16.2115 7.31938C15.9132 6.9104 15.5282 6.57236 15.0841 6.32941C14.64 6.08646 14.1477 5.9446 13.6424 5.91396C13.1371 5.88333 12.6313 5.96468 12.161 6.15219C12.0844 6.18534 12.0018 6.20278 11.9183 6.20348C11.8348 6.20419 11.752 6.18815 11.6748 6.1563C11.5975 6.12446 11.5275 6.07747 11.4688 6.01809C11.41 5.95872 11.3638 5.88817 11.3327 5.81062C11.3017 5.73307 11.2866 5.65009 11.2881 5.56658C11.2897 5.48308 11.3081 5.40073 11.342 5.32442C11.376 5.24811 11.4249 5.17938 11.4858 5.12229C11.5468 5.0652 11.6186 5.02091 11.697 4.99204C12.7731 4.56286 13.9701 4.54742 15.0569 4.94868C16.1438 5.34995 17.0435 6.1395 17.5826 7.16502C18.1217 8.19054 18.2619 9.37935 17.9761 10.5021C17.6904 11.6249 16.999 12.6021 16.0353 13.2452C17.5505 13.8036 18.8445 14.8371 19.7243 16.1913C19.8148 16.3301 19.8465 16.4992 19.8124 16.6614C19.7783 16.8236 19.6811 16.9655 19.5423 17.0561Z" fill="currentColor"/>
</svg>
