<svg viewBox="0 0 20 21" fill="currentColor" xmlns="http://www.w3.org/2000/svg">
<path d="M16.25 11.5327H3.75C3.41848 11.5327 3.10054 11.6644 2.86612 11.8988C2.6317 12.1333 2.5 12.4512 2.5 12.7827V16.5327C2.5 16.8642 2.6317 17.1822 2.86612 17.4166C3.10054 17.651 3.41848 17.7827 3.75 17.7827H16.25C16.5815 17.7827 16.8995 17.651 17.1339 17.4166C17.3683 17.1822 17.5 16.8642 17.5 16.5327V12.7827C17.5 12.4512 17.3683 12.1333 17.1339 11.8988C16.8995 11.6644 16.5815 11.5327 16.25 11.5327ZM16.25 16.5327H3.75V12.7827H16.25V16.5327ZM16.25 4.03271H3.75C3.41848 4.03271 3.10054 4.16441 2.86612 4.39883C2.6317 4.63325 2.5 4.95119 2.5 5.28271V9.03271C2.5 9.36424 2.6317 9.68218 2.86612 9.9166C3.10054 10.151 3.41848 10.2827 3.75 10.2827H16.25C16.5815 10.2827 16.8995 10.151 17.1339 9.9166C17.3683 9.68218 17.5 9.36424 17.5 9.03271V5.28271C17.5 4.95119 17.3683 4.63325 17.1339 4.39883C16.8995 4.16441 16.5815 4.03271 16.25 4.03271ZM16.25 9.03271H3.75V5.28271H16.25V9.03271ZM15 7.15771C15 7.34313 14.945 7.52439 14.842 7.67856C14.739 7.83273 14.5926 7.95289 14.4213 8.02385C14.25 8.09481 14.0615 8.11337 13.8796 8.0772C13.6977 8.04103 13.5307 7.95174 13.3996 7.82063C13.2685 7.68952 13.1792 7.52247 13.143 7.34061C13.1068 7.15876 13.1254 6.97025 13.1964 6.79895C13.2673 6.62764 13.3875 6.48123 13.5417 6.37821C13.6958 6.2752 13.8771 6.22021 14.0625 6.22021C14.3111 6.22021 14.5496 6.31899 14.7254 6.4948C14.9012 6.67062 15 6.90907 15 7.15771ZM15 14.6577C15 14.8431 14.945 15.0244 14.842 15.1786C14.739 15.3327 14.5926 15.4529 14.4213 15.5239C14.25 15.5948 14.0615 15.6134 13.8796 15.5772C13.6977 15.541 13.5307 15.4517 13.3996 15.3206C13.2685 15.1895 13.1792 15.0225 13.143 14.8406C13.1068 14.6588 13.1254 14.4703 13.1964 14.299C13.2673 14.1276 13.3875 13.9812 13.5417 13.8782C13.6958 13.7752 13.8771 13.7202 14.0625 13.7202C14.3111 13.7202 14.5496 13.819 14.7254 13.9948C14.9012 14.1706 15 14.4091 15 14.6577Z" fill="currentColor"/>
</svg>
