<svg viewBox="0 0 24 24" fill="none" xmlns="http://www.w3.org/2000/svg">
<g clip-path="url(#clip0_6513_28212)">
<path d="M20.7273 0H3.27273C1.46525 0 0 1.46525 0 3.27273V20.7273C0 22.5347 1.46525 24 3.27273 24H20.7273C22.5347 24 24 22.5347 24 20.7273V3.27273C24 1.46525 22.5347 0 20.7273 0Z" fill="#1C8ADB"/>
<path d="M18.5373 6.20528L18.2891 6.29528L4.81909 11.1485C4.72363 11.178 4.64067 11.2383 4.5832 11.3201C4.52573 11.4018 4.49701 11.5003 4.50153 11.6001C4.50605 11.6999 4.54357 11.7954 4.60819 11.8716C4.67282 11.9478 4.7609 12.0004 4.85863 12.0212L8.34545 12.9757L8.99591 14.8848L9.64636 16.7939C9.68373 16.8875 9.74337 16.9706 9.82012 17.0359C9.89687 17.1012 9.98839 17.1467 10.0868 17.1686C10.1851 17.1905 10.2873 17.1881 10.3845 17.1615C10.4817 17.135 10.571 17.0851 10.6445 17.0162L12.4459 15.3144L15.9832 17.713C16.4155 18.0076 17.0318 17.7894 17.1423 17.3039L19.485 6.95255C19.5995 6.43983 19.0595 6.01846 18.5373 6.20528ZM16.8177 8.50301L10.7318 13.4776L10.4455 13.7121C10.3825 13.762 10.3415 13.8343 10.3309 13.9139L10.2668 14.443L10.0909 15.9294C10.0924 15.9475 10.0866 15.9654 10.0748 15.9792C10.063 15.993 10.0463 16.0016 10.0282 16.003C10.0101 16.0045 9.99218 15.9987 9.97837 15.9869C9.96456 15.9751 9.95599 15.9584 9.95454 15.9403L9.45954 14.4553L8.94818 12.9348C8.92655 12.8665 8.92942 12.7927 8.9563 12.7263C8.98318 12.6598 9.03239 12.6048 9.09545 12.5707L15.4282 8.94073L16.62 8.25892C16.7932 8.15801 16.9705 8.37755 16.8177 8.50301Z" fill="white"/>
</g>
<defs>
<clipPath id="clip0_6513_28212">
<rect width="24" height="24" fill="white"/>
</clipPath>
</defs>
</svg>
