<svg viewBox="0 0 20 20" fill="currentColor" xmlns="http://www.w3.org/2000/svg">
<path d="M7.75859 13.0625H7.6076L7.71442 13.1692L8.52299 13.977C8.57526 14.0293 8.61672 14.0913 8.645 14.1596C8.67329 14.2279 8.68785 14.3011 8.68785 14.375C8.68785 14.4489 8.67329 14.5221 8.645 14.5904C8.61672 14.6587 8.57526 14.7207 8.52299 14.773C8.47073 14.8253 8.40868 14.8667 8.34039 14.895C8.2721 14.9233 8.19891 14.9378 8.125 14.9378C8.05109 14.9378 7.9779 14.9233 7.90961 14.895C7.84132 14.8667 7.77927 14.8253 7.72701 14.773L5.85201 12.898L5.85198 12.898C5.79968 12.8457 5.75819 12.7837 5.72989 12.7154C5.70158 12.6471 5.68701 12.5739 5.68701 12.5C5.68701 12.4261 5.70158 12.3529 5.72989 12.2846C5.75819 12.2163 5.79968 12.1543 5.85198 12.102L5.85201 12.102L7.72701 10.227C7.83256 10.1215 7.97572 10.0622 8.125 10.0622C8.27428 10.0622 8.41744 10.1215 8.52299 10.227C8.62855 10.3326 8.68785 10.4757 8.68785 10.625C8.68785 10.7743 8.62855 10.9174 8.52299 11.023L7.71442 11.8308L7.6076 11.9375H7.75859H16.25H16.3125V11.875V3.75V3.6875H16.25H7.5H7.4375V3.75V4.375C7.4375 4.52418 7.37824 4.66726 7.27275 4.77275C7.16726 4.87824 7.02418 4.9375 6.875 4.9375C6.72582 4.9375 6.58274 4.87824 6.47725 4.77275C6.37176 4.66726 6.3125 4.52418 6.3125 4.375V3.75C6.3125 3.43506 6.43761 3.13301 6.66031 2.91031C6.88301 2.68761 7.18506 2.5625 7.5 2.5625H16.25C16.5649 2.5625 16.867 2.68761 17.0897 2.91031C17.3124 3.13301 17.4375 3.43506 17.4375 3.75V11.875C17.4375 12.1899 17.3124 12.492 17.0897 12.7147C16.867 12.9374 16.5649 13.0625 16.25 13.0625H7.75859ZM12.5 16.3125H12.5625V16.25V15.625C12.5625 15.4758 12.6218 15.3327 12.7273 15.2273C12.8327 15.1218 12.9758 15.0625 13.125 15.0625C13.2742 15.0625 13.4173 15.1218 13.5227 15.2273C13.6282 15.3327 13.6875 15.4758 13.6875 15.625V16.25C13.6875 16.5649 13.5624 16.867 13.3397 17.0897C13.117 17.3124 12.8149 17.4375 12.5 17.4375H3.75C3.43506 17.4375 3.13301 17.3124 2.91031 17.0897C2.68761 16.867 2.5625 16.5649 2.5625 16.25V8.125C2.5625 7.81006 2.68761 7.50801 2.91031 7.28531C3.13301 7.06261 3.43506 6.9375 3.75 6.9375H12.2414H12.3924L12.2856 6.83078L11.477 6.02299C11.477 6.02299 11.477 6.02298 11.477 6.02297C11.3714 5.91742 11.3122 5.77427 11.3122 5.625C11.3122 5.47572 11.3715 5.33256 11.477 5.22701C11.5826 5.12145 11.7257 5.06215 11.875 5.06215C12.0243 5.06215 12.1674 5.12145 12.273 5.22701L14.148 7.10201L14.148 7.10203C14.2003 7.15427 14.2418 7.21631 14.2701 7.2846C14.2984 7.35288 14.313 7.42608 14.313 7.5C14.313 7.57392 14.2984 7.64712 14.2701 7.7154C14.2418 7.78369 14.2003 7.84573 14.148 7.89797L14.148 7.89799L12.273 9.77299C12.1674 9.87855 12.0243 9.93785 11.875 9.93785C11.7257 9.93785 11.5826 9.87855 11.477 9.77299C11.3715 9.66744 11.3122 9.52428 11.3122 9.375C11.3122 9.22573 11.3714 9.08258 11.477 8.97703C11.477 8.97702 11.477 8.97701 11.477 8.97701L12.2856 8.16922L12.3924 8.0625H12.2414H3.75H3.6875V8.125V16.25V16.3125H3.75H12.5Z" fill="currentColor" stroke="currentColor" stroke-width="0.125"/>
</svg>
