<svg viewBox="0 0 20 21" fill="currentColor" xmlns="http://www.w3.org/2000/svg">
<path d="M19.125 12.6578C19.0593 12.707 18.9846 12.7428 18.9051 12.7632C18.8256 12.7836 18.7429 12.7881 18.6616 12.7765C18.5804 12.7649 18.5022 12.7374 18.4316 12.6956C18.3609 12.6538 18.2992 12.5984 18.25 12.5328C17.8733 12.0264 17.3829 11.6156 16.8185 11.3333C16.254 11.0511 15.6311 10.9053 15 10.9078C14.8771 10.9078 14.7569 10.8715 14.6545 10.8036C14.5521 10.7356 14.472 10.639 14.4242 10.5257C14.3918 10.4488 14.3751 10.3662 14.3751 10.2828C14.3751 10.1993 14.3918 10.1167 14.4242 10.0398C14.472 9.92657 14.5521 9.82993 14.6545 9.76198C14.7569 9.69403 14.8771 9.65778 15 9.65777C15.3507 9.65774 15.6943 9.55937 15.9919 9.37382C16.2895 9.18828 16.529 8.923 16.6834 8.60812C16.8378 8.29324 16.9007 7.94138 16.8652 7.59251C16.8296 7.24364 16.6969 6.91174 16.4821 6.63451C16.2673 6.35728 15.9791 6.14584 15.6502 6.02419C15.3213 5.90255 14.9649 5.87558 14.6214 5.94635C14.278 6.01713 13.9612 6.1828 13.7072 6.42456C13.4532 6.66632 13.272 6.97448 13.1844 7.31402C13.1638 7.39353 13.1279 7.46823 13.0785 7.53383C13.0291 7.59944 12.9673 7.65468 12.8965 7.69639C12.8258 7.7381 12.7476 7.76548 12.6662 7.77695C12.5849 7.78842 12.5022 7.78376 12.4226 7.76324C12.3431 7.74272 12.2684 7.70674 12.2028 7.65736C12.1372 7.60797 12.082 7.54615 12.0403 7.47542C11.9986 7.40469 11.9712 7.32643 11.9597 7.24512C11.9483 7.16381 11.9529 7.08103 11.9734 7.00152C12.0951 6.53067 12.325 6.09472 12.6448 5.72836C12.9646 5.362 13.3656 5.07533 13.8157 4.89117C14.2658 4.70701 14.7526 4.63045 15.2375 4.66756C15.7224 4.70468 16.192 4.85445 16.6088 5.10497C17.0256 5.35549 17.3782 5.69983 17.6386 6.1106C17.8989 6.52137 18.0598 6.98723 18.1084 7.47111C18.157 7.955 18.092 8.44355 17.9186 8.89789C17.7451 9.35223 17.468 9.75983 17.1094 10.0882C17.9592 10.4562 18.698 11.0401 19.2523 11.782C19.3016 11.8478 19.3374 11.9227 19.3576 12.0024C19.3779 12.0821 19.3822 12.165 19.3704 12.2463C19.3585 12.3277 19.3308 12.4059 19.2887 12.4765C19.2466 12.5471 19.1909 12.6087 19.125 12.6578ZM14.9156 17.4703C14.9608 17.5414 14.9912 17.621 15.0049 17.7041C15.0186 17.7873 15.0153 17.8724 14.9952 17.9543C14.9752 18.0361 14.9388 18.1131 14.8882 18.1805C14.8376 18.248 14.7739 18.3045 14.7009 18.3467C14.628 18.3889 14.5472 18.4158 14.4635 18.426C14.3799 18.4362 14.295 18.4293 14.214 18.4058C14.1331 18.3823 14.0577 18.3427 13.9925 18.2893C13.9272 18.236 13.8734 18.17 13.8344 18.0953C13.4407 17.4286 12.8799 16.8761 12.2075 16.4923C11.5351 16.1085 10.7742 15.9066 9.99999 15.9066C9.22575 15.9066 8.46489 16.1085 7.79247 16.4923C7.12006 16.8761 6.55933 17.4286 6.16562 18.0953C6.12655 18.17 6.07277 18.236 6.00752 18.2893C5.94228 18.3427 5.86691 18.3823 5.78595 18.4058C5.705 18.4293 5.62013 18.4362 5.53645 18.426C5.45277 18.4158 5.37202 18.3889 5.29904 18.3467C5.22606 18.3045 5.16237 18.248 5.11179 18.1805C5.06122 18.1131 5.02482 18.0361 5.00476 17.9543C4.98471 17.8724 4.98142 17.7873 4.9951 17.7041C5.00878 17.621 5.03915 17.5414 5.08437 17.4703C5.6903 16.4292 6.61421 15.6099 7.7203 15.1328C7.0979 14.6562 6.64048 13.9966 6.41234 13.2467C6.18419 12.4968 6.19679 11.6942 6.44836 10.9518C6.69994 10.2093 7.17784 9.56444 7.81489 9.10768C8.45194 8.65091 9.21611 8.40527 9.99999 8.40527C10.7839 8.40527 11.548 8.65091 12.1851 9.10768C12.8221 9.56444 13.3 10.2093 13.5516 10.9518C13.8032 11.6942 13.8158 12.4968 13.5876 13.2467C13.3595 13.9966 12.9021 14.6562 12.2797 15.1328C13.3858 15.6099 14.3097 16.4292 14.9156 17.4703ZM9.99999 14.6578C10.4944 14.6578 10.9778 14.5112 11.3889 14.2364C11.8 13.9617 12.1205 13.5713 12.3097 13.1145C12.4989 12.6577 12.5484 12.155 12.452 11.67C12.3555 11.1851 12.1174 10.7396 11.7678 10.39C11.4181 10.0404 10.9727 9.80227 10.4877 9.70581C10.0028 9.60935 9.5001 9.65885 9.04328 9.84807C8.58647 10.0373 8.19602 10.3577 7.92132 10.7688C7.64662 11.18 7.49999 11.6633 7.49999 12.1578C7.49999 12.8208 7.76338 13.4567 8.23223 13.9255C8.70107 14.3944 9.33695 14.6578 9.99999 14.6578ZM5.62499 10.2828C5.62499 10.117 5.55914 9.95804 5.44193 9.84083C5.32472 9.72362 5.16575 9.65777 4.99999 9.65777C4.64931 9.65774 4.30567 9.55937 4.00809 9.37382C3.71052 9.18828 3.47094 8.923 3.31658 8.60812C3.16222 8.29324 3.09925 7.94138 3.13484 7.59251C3.17042 7.24364 3.30313 6.91174 3.51789 6.63451C3.73265 6.35728 4.02085 6.14584 4.34976 6.02419C4.67866 5.90255 5.03509 5.87558 5.37856 5.94635C5.72203 6.01713 6.03876 6.1828 6.29279 6.42456C6.54681 6.66632 6.72795 6.97448 6.81562 7.31402C6.85706 7.4746 6.96059 7.61214 7.10344 7.69639C7.24629 7.78063 7.41676 7.80468 7.57734 7.76324C7.73792 7.7218 7.87546 7.61827 7.9597 7.47542C8.04395 7.33257 8.06799 7.1621 8.02655 7.00152C7.90487 6.53067 7.67497 6.09472 7.35516 5.72836C7.03534 5.362 6.63443 5.07533 6.18433 4.89117C5.73423 4.70701 5.24736 4.63045 4.76246 4.66756C4.27756 4.70468 3.80801 4.85445 3.39119 5.10497C2.97436 5.35549 2.62175 5.69983 2.36142 6.1106C2.10108 6.52137 1.94021 6.98723 1.89161 7.47111C1.843 7.955 1.908 8.44355 2.08143 8.89789C2.25486 9.35223 2.53194 9.75983 2.89062 10.0882C2.04162 10.4566 1.30368 11.0404 0.749993 11.782C0.650433 11.9146 0.607629 12.0813 0.630998 12.2455C0.654367 12.4097 0.741994 12.5578 0.874602 12.6574C1.00721 12.7569 1.17394 12.7997 1.33811 12.7764C1.50227 12.753 1.65043 12.6654 1.74999 12.5328C2.1267 12.0264 2.61703 11.6156 3.18152 11.3333C3.74601 11.0511 4.36888 10.9053 4.99999 10.9078C5.16575 10.9078 5.32472 10.8419 5.44193 10.7247C5.55914 10.6075 5.62499 10.4485 5.62499 10.2828Z" fill="currentColor"/>
</svg>
